<svg width="33" height="33" viewBox="0 0 33 33" fill="none" xmlns="http://www.w3.org/2000/svg">
<g id="cross">
<circle id="background-ellipse" cx="16.5" cy="16.5" r="16.5"/>
<path id="main-cross" d="M9.66099 23.339C8.77967 22.4577 8.77967 21.0288 9.66099 20.1475L13.3491 16.5407L9.66099 12.8525C8.77967 11.9712 8.77967 10.5423 9.66099 9.66099C10.5423 8.77967 11.9712 8.77967 12.8525 9.66099L16.5763 13.3847L20.1475 9.66099C21.0288 8.77967 22.4577 8.77967 23.339 9.66099C24.2203 10.5423 24.2203 11.9712 23.339 12.8525L19.6915 16.5L23.339 20.1475C24.2203 21.0288 24.2203 22.4577 23.339 23.339C22.4577 24.2203 21.0288 24.2203 20.1475 23.339L16.5 19.6915L12.8525 23.339C11.9712 24.2203 10.5423 24.2203 9.66099 23.339Z"/>
</g>
</svg>
