<svg width="309" height="100" viewBox="0 0 309 100" fill="none" xmlns="http://www.w3.org/2000/svg">
<path d="M49 0.57735C49.6188 0.220084 50.3812 0.220085 51 0.57735L92.3013 24.4226C92.9201 24.7799 93.3013 25.4402 93.3013 26.1547V73.8453C93.3013 74.5598 92.9201 75.2201 92.3013 75.5773L51 99.4227C50.3812 99.7799 49.6188 99.7799 49 99.4227L7.69873 75.5773C7.07993 75.2201 6.69873 74.5598 6.69873 73.8453V26.1547C6.69873 25.4402 7.07993 24.7799 7.69873 24.4226L49 0.57735Z" fill="url(#paint0_linear)"/>
<path d="M47.832 45.544C54.1467 45.544 58.8187 46.7813 61.848 49.256C64.8773 51.688 66.392 55.016 66.392 59.24C66.392 61.928 65.7307 64.36 64.408 66.536C63.0853 68.712 61.1013 70.44 58.456 71.72C55.8107 73 52.5467 73.64 48.664 73.64C45.464 73.64 42.3707 73.192 39.384 72.296C36.3973 71.3573 33.88 70.0773 31.832 68.456L35.352 61.992C37.016 63.3573 39 64.4453 41.304 65.256C43.6507 66.024 46.0613 66.408 48.536 66.408C51.48 66.408 53.784 65.8107 55.448 64.616C57.1547 63.3787 58.008 61.6933 58.008 59.56C58.008 57.256 57.0907 55.528 55.256 54.376C53.464 53.1813 50.3707 52.584 45.976 52.584H35.16L37.464 28.2H63.768V35.176H44.504L43.544 45.544H47.832Z" fill="white"/>
<path d="M147.168 73L147.104 43.304L132.384 67.88H128.672L113.952 43.688V73H106.016V28.2H112.864L130.656 57.896L148.128 28.2H154.976L155.04 73H147.168ZM188.069 73.64C183.504 73.64 179.386 72.6587 175.717 70.696C172.048 68.6907 169.168 65.9387 167.077 62.44C164.986 58.8987 163.941 54.952 163.941 50.6C163.941 46.248 164.986 42.3227 167.077 38.824C169.168 35.2827 172.048 32.5307 175.717 30.568C179.386 28.5627 183.504 27.56 188.069 27.56C192.634 27.56 196.752 28.5627 200.421 30.568C204.09 32.5307 206.97 35.2613 209.061 38.76C211.152 42.2587 212.197 46.2053 212.197 50.6C212.197 54.9947 211.152 58.9413 209.061 62.44C206.97 65.9387 204.09 68.6907 200.421 70.696C196.752 72.6587 192.634 73.64 188.069 73.64ZM188.069 66.344C191.056 66.344 193.744 65.6827 196.133 64.36C198.522 62.9947 200.4 61.1173 201.765 58.728C203.13 56.296 203.813 53.5867 203.813 50.6C203.813 47.6133 203.13 44.9253 201.765 42.536C200.4 40.104 198.522 38.2267 196.133 36.904C193.744 35.5387 191.056 34.856 188.069 34.856C185.082 34.856 182.394 35.5387 180.005 36.904C177.616 38.2267 175.738 40.104 174.373 42.536C173.008 44.9253 172.325 47.6133 172.325 50.6C172.325 53.5867 173.008 56.296 174.373 58.728C175.738 61.1173 177.616 62.9947 180.005 64.36C182.394 65.6827 185.082 66.344 188.069 66.344ZM221.016 28.2H240.6C245.379 28.2 249.624 29.1387 253.336 31.016C257.048 32.8507 259.928 35.4747 261.976 38.888C264.024 42.2587 265.048 46.1627 265.048 50.6C265.048 55.0373 264.024 58.9627 261.976 62.376C259.928 65.7467 257.048 68.3707 253.336 70.248C249.624 72.0827 245.379 73 240.6 73H221.016V28.2ZM240.216 65.96C243.501 65.96 246.381 65.3413 248.856 64.104C251.373 62.824 253.293 61.032 254.616 58.728C255.981 56.3813 256.664 53.672 256.664 50.6C256.664 47.528 255.981 44.84 254.616 42.536C253.293 40.1893 251.373 38.3973 248.856 37.16C246.381 35.88 243.501 35.24 240.216 35.24H229.336V65.96H240.216ZM287.779 73.64C284.323 73.64 280.974 73.1493 277.731 72.168C274.531 71.1867 271.992 69.8853 270.115 68.264L272.995 61.8C274.83 63.2507 277.07 64.4453 279.715 65.384C282.403 66.28 285.091 66.728 287.779 66.728C291.107 66.728 293.582 66.1947 295.203 65.128C296.867 64.0613 297.699 62.6533 297.699 60.904C297.699 59.624 297.23 58.5787 296.291 57.768C295.395 56.9147 294.243 56.2533 292.835 55.784C291.427 55.3147 289.507 54.7813 287.075 54.184C283.662 53.3733 280.888 52.5627 278.755 51.752C276.664 50.9413 274.851 49.6827 273.315 47.976C271.822 46.2267 271.075 43.88 271.075 40.936C271.075 38.4613 271.736 36.2213 273.059 34.216C274.424 32.168 276.451 30.5467 279.139 29.352C281.87 28.1573 285.198 27.56 289.123 27.56C291.854 27.56 294.542 27.9013 297.187 28.584C299.832 29.2667 302.115 30.248 304.035 31.528L301.411 37.992C299.448 36.84 297.4 35.9653 295.267 35.368C293.134 34.7707 291.064 34.472 289.059 34.472C285.774 34.472 283.32 35.0267 281.699 36.136C280.12 37.2453 279.331 38.7173 279.331 40.552C279.331 41.832 279.779 42.8773 280.675 43.688C281.614 44.4987 282.787 45.1387 284.195 45.608C285.603 46.0773 287.523 46.6107 289.955 47.208C293.283 47.976 296.014 48.7867 298.147 49.64C300.28 50.4507 302.094 51.7093 303.587 53.416C305.123 55.1227 305.891 57.4267 305.891 60.328C305.891 62.8027 305.208 65.0427 303.843 67.048C302.52 69.0533 300.494 70.6533 297.763 71.848C295.032 73.0427 291.704 73.64 287.779 73.64Z" fill="white"/>
<defs>
<linearGradient id="paint0_linear" x1="50" y1="0" x2="50" y2="100" gradientUnits="userSpaceOnUse">
<stop stop-color="#E57C0B"/>
<stop offset="1" stop-color="#E94057"/>
</linearGradient>
</defs>
</svg>
