<svg width="281" height="100" viewBox="0 0 281 100" fill="none" xmlns="http://www.w3.org/2000/svg">
<g id="fivemods">
<path id="mods" d="M148.168 73L148.104 43.304L133.384 67.88H129.672L114.952 43.688V73H107.016V28.2H113.864L131.656 57.896L149.128 28.2H155.976L156.04 73H148.168ZM182.733 73.448C179.277 73.448 176.162 72.7013 173.389 71.208C170.616 69.7147 168.44 67.6453 166.861 65C165.325 62.312 164.557 59.2827 164.557 55.912C164.557 52.5413 165.325 49.5333 166.861 46.888C168.44 44.2427 170.616 42.1733 173.389 40.68C176.162 39.1867 179.277 38.44 182.733 38.44C186.232 38.44 189.368 39.1867 192.141 40.68C194.914 42.1733 197.069 44.2427 198.605 46.888C200.184 49.5333 200.973 52.5413 200.973 55.912C200.973 59.2827 200.184 62.312 198.605 65C197.069 67.6453 194.914 69.7147 192.141 71.208C189.368 72.7013 186.232 73.448 182.733 73.448ZM182.733 66.6C185.677 66.6 188.109 65.6187 190.029 63.656C191.949 61.6933 192.909 59.112 192.909 55.912C192.909 52.712 191.949 50.1307 190.029 48.168C188.109 46.2053 185.677 45.224 182.733 45.224C179.789 45.224 177.357 46.2053 175.437 48.168C173.56 50.1307 172.621 52.712 172.621 55.912C172.621 59.112 173.56 61.6933 175.437 63.656C177.357 65.6187 179.789 66.6 182.733 66.6ZM242.095 25.512V73H234.415V68.584C233.092 70.2053 231.45 71.4213 229.487 72.232C227.567 73.0427 225.434 73.448 223.087 73.448C219.802 73.448 216.836 72.7227 214.191 71.272C211.588 69.8213 209.54 67.7733 208.047 65.128C206.554 62.44 205.807 59.368 205.807 55.912C205.807 52.456 206.554 49.4053 208.047 46.76C209.54 44.1147 211.588 42.0667 214.191 40.616C216.836 39.1653 219.802 38.44 223.087 38.44C225.348 38.44 227.418 38.824 229.295 39.592C231.172 40.36 232.772 41.512 234.095 43.048V25.512H242.095ZM224.047 66.6C225.967 66.6 227.695 66.1733 229.231 65.32C230.767 64.424 231.983 63.1653 232.879 61.544C233.775 59.9227 234.223 58.0453 234.223 55.912C234.223 53.7787 233.775 51.9013 232.879 50.28C231.983 48.6587 230.767 47.4213 229.231 46.568C227.695 45.672 225.967 45.224 224.047 45.224C222.127 45.224 220.399 45.672 218.863 46.568C217.327 47.4213 216.111 48.6587 215.215 50.28C214.319 51.9013 213.871 53.7787 213.871 55.912C213.871 58.0453 214.319 59.9227 215.215 61.544C216.111 63.1653 217.327 64.424 218.863 65.32C220.399 66.1733 222.127 66.6 224.047 66.6ZM263.121 73.448C260.347 73.448 257.638 73.0853 254.993 72.36C252.347 71.6347 250.235 70.7173 248.657 69.608L251.729 63.528C253.265 64.552 255.099 65.384 257.233 66.024C259.409 66.6213 261.542 66.92 263.633 66.92C268.411 66.92 270.801 65.6613 270.801 63.144C270.801 61.9493 270.182 61.1173 268.945 60.648C267.75 60.1787 265.809 59.7307 263.121 59.304C260.305 58.8773 258.001 58.3867 256.209 57.832C254.459 57.2773 252.923 56.3173 251.601 54.952C250.321 53.544 249.681 51.6027 249.681 49.128C249.681 45.8853 251.025 43.304 253.713 41.384C256.443 39.4213 260.113 38.44 264.721 38.44C267.067 38.44 269.414 38.7173 271.761 39.272C274.107 39.784 276.027 40.488 277.521 41.384L274.449 47.464C271.547 45.7573 268.283 44.904 264.657 44.904C262.31 44.904 260.518 45.2667 259.281 45.992C258.086 46.6747 257.489 47.592 257.489 48.744C257.489 50.024 258.129 50.9413 259.409 51.496C260.731 52.008 262.758 52.4987 265.489 52.968C268.219 53.3947 270.459 53.8853 272.209 54.44C273.958 54.9947 275.451 55.9333 276.689 57.256C277.969 58.5787 278.609 60.456 278.609 62.888C278.609 66.088 277.222 68.648 274.449 70.568C271.675 72.488 267.899 73.448 263.121 73.448Z" fill="url(#paint0_linear)"/>
<g id="five">
<path id="Polygon 1" d="M49 0.57735C49.6188 0.220084 50.3812 0.220085 51 0.57735L92.3013 24.4226C92.9201 24.7799 93.3013 25.4402 93.3013 26.1547V73.8453C93.3013 74.5598 92.9201 75.2201 92.3013 75.5773L51 99.4227C50.3812 99.7799 49.6188 99.7799 49 99.4227L7.69873 75.5773C7.07993 75.2201 6.69873 74.5598 6.69873 73.8453V26.1547C6.69873 25.4402 7.07993 24.7799 7.69873 24.4226L49 0.57735Z" fill="url(#paint1_linear)"/>
<g id="5">
<g id="5_2" filter="url(#filter0_d)">
<path d="M47.832 45.544C54.1467 45.544 58.8187 46.7813 61.848 49.256C64.8773 51.688 66.392 55.016 66.392 59.24C66.392 61.928 65.7307 64.36 64.408 66.536C63.0853 68.712 61.1013 70.44 58.456 71.72C55.8107 73 52.5467 73.64 48.664 73.64C45.464 73.64 42.3707 73.192 39.384 72.296C36.3973 71.3573 33.88 70.0773 31.832 68.456L35.352 61.992C37.016 63.3573 39 64.4453 41.304 65.256C43.6507 66.024 46.0613 66.408 48.536 66.408C51.48 66.408 53.784 65.8107 55.448 64.616C57.1547 63.3787 58.008 61.6933 58.008 59.56C58.008 57.256 57.0907 55.528 55.256 54.376C53.464 53.1813 50.3707 52.584 45.976 52.584H35.16L37.464 28.2H63.768V35.176H44.504L43.544 45.544H47.832Z" fill="white"/>
</g>
</g>
</g>
</g>
<defs>
<filter id="filter0_d" x="27.832" y="26.2" width="42.56" height="53.44" filterUnits="userSpaceOnUse" color-interpolation-filters="sRGB">
<feFlood flood-opacity="0" result="BackgroundImageFix"/>
<feColorMatrix in="SourceAlpha" type="matrix" values="0 0 0 0 0 0 0 0 0 0 0 0 0 0 0 0 0 0 127 0"/>
<feOffset dy="2"/>
<feGaussianBlur stdDeviation="2"/>
<feColorMatrix type="matrix" values="0 0 0 0 0 0 0 0 0 0 0 0 0 0 0 0 0 0 0.25 0"/>
<feBlend mode="normal" in2="BackgroundImageFix" result="effect1_dropShadow"/>
<feBlend mode="normal" in="SourceGraphic" in2="effect1_dropShadow" result="shape"/>
</filter>
<linearGradient id="paint0_linear" x1="191" y1="11" x2="191" y2="89" gradientUnits="userSpaceOnUse">
<stop stop-color="#F27121"/>
<stop offset="1" stop-color="#E94057"/>
</linearGradient>
<linearGradient id="paint1_linear" x1="50" y1="0" x2="50" y2="100" gradientUnits="userSpaceOnUse">
<stop stop-color="#E57C0B"/>
<stop offset="1" stop-color="#E94057"/>
</linearGradient>
</defs>
</svg>
