<svg width="5620" height="2000" viewBox="0 0 5620 2000" fill="none" xmlns="http://www.w3.org/2000/svg">
<path d="M2963.36 1459.99L2962.08 866.075L2667.68 1357.59H2593.44L2299.04 873.755V1459.99H2140.32V563.995H2277.28L2633.12 1157.91L2982.56 563.995H3119.52L3120.8 1459.99H2963.36ZM3654.66 1468.95C3585.54 1468.95 3523.24 1454.02 3467.78 1424.15C3412.32 1394.29 3368.8 1352.9 3337.22 1299.99C3306.5 1246.23 3291.14 1185.65 3291.14 1118.23C3291.14 1050.82 3306.5 990.661 3337.22 937.755C3368.8 884.849 3412.32 843.461 3467.78 813.595C3523.24 783.729 3585.54 768.795 3654.66 768.795C3724.64 768.795 3787.36 783.729 3842.82 813.595C3898.28 843.461 3941.38 884.849 3972.1 937.755C4003.68 990.661 4019.46 1050.82 4019.46 1118.23C4019.46 1185.65 4003.68 1246.23 3972.1 1299.99C3941.38 1352.9 3898.28 1394.29 3842.82 1424.15C3787.36 1454.02 3724.64 1468.95 3654.66 1468.95ZM3654.66 1331.99C3713.54 1331.99 3762.18 1312.37 3800.58 1273.11C3838.98 1233.86 3858.18 1182.23 3858.18 1118.23C3858.18 1054.23 3838.98 1002.61 3800.58 963.355C3762.18 924.101 3713.54 904.475 3654.66 904.475C3595.78 904.475 3547.14 924.101 3508.74 963.355C3471.2 1002.61 3452.42 1054.23 3452.42 1118.23C3452.42 1182.23 3471.2 1233.86 3508.74 1273.11C3547.14 1312.37 3595.78 1331.99 3654.66 1331.99ZM4841.9 510.235V1459.99H4688.3V1371.67C4661.84 1404.1 4629 1428.42 4589.74 1444.63C4551.34 1460.85 4508.68 1468.95 4461.74 1468.95C4396.04 1468.95 4336.72 1454.45 4283.82 1425.43C4231.76 1396.42 4190.8 1355.46 4160.94 1302.55C4131.08 1248.79 4116.14 1187.35 4116.14 1118.23C4116.14 1049.11 4131.08 988.101 4160.94 935.195C4190.8 882.289 4231.76 841.329 4283.82 812.315C4336.72 783.301 4396.04 768.795 4461.74 768.795C4506.96 768.795 4548.36 776.475 4585.9 791.835C4623.44 807.195 4655.44 830.235 4681.9 860.955V510.235H4841.9ZM4480.94 1331.99C4519.34 1331.99 4553.9 1323.46 4584.62 1306.39C4615.34 1288.47 4639.66 1263.3 4657.58 1230.87C4675.5 1198.45 4684.46 1160.9 4684.46 1118.23C4684.46 1075.57 4675.5 1038.02 4657.58 1005.59C4639.66 973.169 4615.34 948.421 4584.62 931.355C4553.9 913.435 4519.34 904.475 4480.94 904.475C4442.54 904.475 4407.98 913.435 4377.26 931.355C4346.54 948.421 4322.22 973.169 4304.3 1005.59C4286.38 1038.02 4277.42 1075.57 4277.42 1118.23C4277.42 1160.9 4286.38 1198.45 4304.3 1230.87C4322.22 1263.3 4346.54 1288.47 4377.26 1306.39C4407.98 1323.46 4442.54 1331.99 4480.94 1331.99ZM5262.42 1468.95C5206.94 1468.95 5152.76 1461.7 5099.86 1447.19C5046.94 1432.69 5004.7 1414.34 4973.14 1392.15L5034.58 1270.55C5065.3 1291.03 5101.98 1307.67 5144.66 1320.47C5188.18 1332.42 5230.84 1338.39 5272.66 1338.39C5368.22 1338.39 5416.02 1313.22 5416.02 1262.87C5416.02 1238.98 5403.64 1222.34 5378.9 1212.95C5355 1203.57 5316.18 1194.61 5262.42 1186.07C5206.1 1177.54 5160.02 1167.73 5124.18 1156.63C5089.18 1145.54 5058.46 1126.34 5032.02 1099.03C5006.42 1070.87 4993.62 1032.05 4993.62 982.555C4993.62 917.701 5020.5 866.075 5074.26 827.675C5128.86 788.421 5202.26 768.795 5294.42 768.795C5341.34 768.795 5388.28 774.341 5435.22 785.435C5482.14 795.675 5520.54 809.755 5550.42 827.675L5488.98 949.275C5430.94 915.141 5365.66 898.075 5293.14 898.075C5246.2 898.075 5210.36 905.329 5185.62 919.835C5161.72 933.489 5149.78 951.835 5149.78 974.875C5149.78 1000.47 5162.58 1018.82 5188.18 1029.91C5214.62 1040.15 5255.16 1049.97 5309.78 1059.35C5364.38 1067.89 5409.18 1077.7 5444.18 1088.79C5479.16 1099.89 5509.02 1118.66 5533.78 1145.11C5559.38 1171.57 5572.18 1209.11 5572.18 1257.75C5572.18 1321.75 5544.44 1372.95 5488.98 1411.35C5433.5 1449.75 5357.98 1468.95 5262.42 1468.95Z" fill="url(#paint0_linear)"/>
<path d="M980 11.5504C992.376 4.40507 1007.62 4.40509 1020 11.5504L1846.03 488.455C1858.4 495.601 1866.03 508.807 1866.03 523.097V1476.91C1866.03 1491.2 1858.4 1504.41 1846.03 1511.55L1020 1988.46C1007.62 1995.6 992.376 1995.6 980 1988.46L153.975 1511.55C141.599 1504.41 133.975 1491.2 133.975 1476.91V523.097C133.975 508.807 141.599 495.601 153.975 488.455L980 11.5504Z" fill="url(#paint1_linear)"/>
<g filter="url(#filter0_d)">
<path d="M956.641 910.884C1082.93 910.884 1176.37 935.63 1236.96 985.124C1297.55 1033.76 1327.84 1100.32 1327.84 1184.8C1327.84 1238.56 1314.61 1287.2 1288.16 1330.72C1261.71 1374.24 1222.03 1408.8 1169.12 1434.4C1116.21 1460 1050.93 1472.8 973.281 1472.8C909.281 1472.8 847.415 1463.84 787.681 1445.92C727.947 1427.15 677.601 1401.55 636.641 1369.12L707.041 1239.84C740.321 1267.15 780.001 1288.91 826.081 1305.12C873.015 1320.48 921.227 1328.16 970.721 1328.16C1029.6 1328.16 1075.68 1316.22 1108.96 1292.32C1143.09 1267.58 1160.16 1233.87 1160.16 1191.2C1160.16 1145.12 1141.81 1110.56 1105.12 1087.52C1069.28 1063.63 1007.41 1051.68 919.521 1051.68H703.201L749.281 564.004H1275.36V703.524H890.081L870.881 910.884H956.641Z" fill="white"/>
</g>
<defs>
<filter id="filter0_d" x="556.641" y="524.004" width="851.2" height="1068.8" filterUnits="userSpaceOnUse" color-interpolation-filters="sRGB">
<feFlood flood-opacity="0" result="BackgroundImageFix"/>
<feColorMatrix in="SourceAlpha" type="matrix" values="0 0 0 0 0 0 0 0 0 0 0 0 0 0 0 0 0 0 127 0"/>
<feOffset dy="40"/>
<feGaussianBlur stdDeviation="40"/>
<feColorMatrix type="matrix" values="0 0 0 0 0 0 0 0 0 0 0 0 0 0 0 0 0 0 0.25 0"/>
<feBlend mode="normal" in2="BackgroundImageFix" result="effect1_dropShadow"/>
<feBlend mode="normal" in="SourceGraphic" in2="effect1_dropShadow" result="shape"/>
</filter>
<linearGradient id="paint0_linear" x1="3820" y1="219.995" x2="3820" y2="1779.99" gradientUnits="userSpaceOnUse">
<stop stop-color="#F27121"/>
<stop offset="1" stop-color="#E94057"/>
</linearGradient>
<linearGradient id="paint1_linear" x1="1000" y1="0.00338902" x2="1000" y2="2000" gradientUnits="userSpaceOnUse">
<stop stop-color="#E57C0B"/>
<stop offset="1" stop-color="#E94057"/>
</linearGradient>
</defs>
</svg>
