<svg width="5600" height="2002" viewBox="0 0 5600 2002" fill="none" xmlns="http://www.w3.org/2000/svg">
<g filter="url(#filter0_d)">
<path d="M2943.35 1459.99L2942.07 866.074L2647.67 1357.59H2573.43L2279.03 873.754V1459.99H2120.31V563.994H2257.27L2613.11 1157.91L2962.55 563.994H3099.51L3100.79 1459.99H2943.35ZM3634.65 1468.95C3565.53 1468.95 3503.23 1454.02 3447.77 1424.15C3392.31 1394.29 3348.79 1352.9 3317.21 1299.99C3286.49 1246.23 3271.13 1185.65 3271.13 1118.23C3271.13 1050.82 3286.49 990.66 3317.21 937.754C3348.79 884.848 3392.31 843.46 3447.77 813.594C3503.23 783.728 3565.53 768.794 3634.65 768.794C3704.63 768.794 3767.35 783.728 3822.81 813.594C3878.27 843.46 3921.37 884.848 3952.09 937.754C3983.67 990.66 3999.45 1050.82 3999.45 1118.23C3999.45 1185.65 3983.67 1246.23 3952.09 1299.99C3921.37 1352.9 3878.27 1394.29 3822.81 1424.15C3767.35 1454.02 3704.63 1468.95 3634.65 1468.95ZM3634.65 1331.99C3693.53 1331.99 3742.17 1312.37 3780.57 1273.11C3818.97 1233.86 3838.17 1182.23 3838.17 1118.23C3838.17 1054.23 3818.97 1002.61 3780.57 963.354C3742.17 924.1 3693.53 904.474 3634.65 904.474C3575.77 904.474 3527.13 924.1 3488.73 963.354C3451.19 1002.61 3432.41 1054.23 3432.41 1118.23C3432.41 1182.23 3451.19 1233.86 3488.73 1273.11C3527.13 1312.37 3575.77 1331.99 3634.65 1331.99ZM4821.89 510.234V1459.99H4668.29V1371.67C4641.83 1404.1 4608.99 1428.42 4569.73 1444.63C4531.33 1460.85 4488.67 1468.95 4441.73 1468.95C4376.03 1468.95 4316.71 1454.45 4263.81 1425.43C4211.75 1396.42 4170.79 1355.46 4140.93 1302.55C4111.07 1248.79 4096.13 1187.35 4096.13 1118.23C4096.13 1049.11 4111.07 988.1 4140.93 935.194C4170.79 882.288 4211.75 841.328 4263.81 812.314C4316.71 783.3 4376.03 768.794 4441.73 768.794C4486.95 768.794 4528.35 776.474 4565.89 791.834C4603.43 807.194 4635.43 830.234 4661.89 860.954V510.234H4821.89ZM4460.93 1331.99C4499.33 1331.99 4533.89 1323.46 4564.61 1306.39C4595.33 1288.47 4619.65 1263.3 4637.57 1230.87C4655.49 1198.45 4664.45 1160.9 4664.45 1118.23C4664.45 1075.57 4655.49 1038.02 4637.57 1005.59C4619.65 973.168 4595.33 948.42 4564.61 931.354C4533.89 913.434 4499.33 904.474 4460.93 904.474C4422.53 904.474 4387.97 913.434 4357.25 931.354C4326.53 948.42 4302.21 973.168 4284.29 1005.59C4266.37 1038.02 4257.41 1075.57 4257.41 1118.23C4257.41 1160.9 4266.37 1198.45 4284.29 1230.87C4302.21 1263.3 4326.53 1288.47 4357.25 1306.39C4387.97 1323.46 4422.53 1331.99 4460.93 1331.99ZM5242.41 1468.95C5186.93 1468.95 5132.75 1461.7 5079.85 1447.19C5026.93 1432.69 4984.69 1414.34 4953.13 1392.15L5014.57 1270.55C5045.29 1291.03 5081.97 1307.67 5124.65 1320.47C5168.17 1332.42 5210.83 1338.39 5252.65 1338.39C5348.21 1338.39 5396.01 1313.22 5396.01 1262.87C5396.01 1238.98 5383.63 1222.34 5358.89 1212.95C5334.99 1203.57 5296.17 1194.61 5242.41 1186.07C5186.09 1177.54 5140.01 1167.73 5104.17 1156.63C5069.17 1145.54 5038.45 1126.34 5012.01 1099.03C4986.41 1070.87 4973.61 1032.05 4973.61 982.554C4973.61 917.7 5000.49 866.074 5054.25 827.674C5108.85 788.42 5182.25 768.794 5274.41 768.794C5321.33 768.794 5368.27 774.34 5415.21 785.434C5462.13 795.674 5500.53 809.754 5530.41 827.674L5468.97 949.274C5410.93 915.14 5345.65 898.074 5273.13 898.074C5226.19 898.074 5190.35 905.328 5165.61 919.834C5141.71 933.488 5129.77 951.834 5129.77 974.874C5129.77 1000.47 5142.57 1018.82 5168.17 1029.91C5194.61 1040.15 5235.15 1049.97 5289.77 1059.35C5344.37 1067.89 5389.17 1077.7 5424.17 1088.79C5459.15 1099.89 5489.01 1118.66 5513.77 1145.11C5539.37 1171.57 5552.17 1209.11 5552.17 1257.75C5552.17 1321.75 5524.43 1372.95 5468.97 1411.35C5413.49 1449.75 5337.97 1468.95 5242.41 1468.95Z" fill="#17141F"/>
<path d="M979.99 11.5504C992.366 4.40507 1007.61 4.40509 1019.99 11.5504L1846.02 488.455C1858.39 495.601 1866.02 508.807 1866.02 523.097V1476.91C1866.02 1491.2 1858.39 1504.41 1846.02 1511.55L1019.99 1988.46C1007.61 1995.6 992.366 1995.6 979.99 1988.46L153.965 1511.55C141.589 1504.41 133.965 1491.2 133.965 1476.91V523.097C133.965 508.807 141.589 495.601 153.965 488.455L979.99 11.5504Z" fill="url(#paint0_linear)"/>
<g filter="url(#filter1_d)">
<path d="M956.641 910.884C1082.93 910.884 1176.37 935.63 1236.96 985.124C1297.55 1033.76 1327.84 1100.32 1327.84 1184.8C1327.84 1238.56 1314.61 1287.2 1288.16 1330.72C1261.71 1374.24 1222.03 1408.8 1169.12 1434.4C1116.21 1460 1050.93 1472.8 973.281 1472.8C909.281 1472.8 847.415 1463.84 787.681 1445.92C727.947 1427.15 677.601 1401.55 636.641 1369.12L707.041 1239.84C740.321 1267.15 780.001 1288.91 826.081 1305.12C873.015 1320.48 921.227 1328.16 970.721 1328.16C1029.6 1328.16 1075.68 1316.22 1108.96 1292.32C1143.09 1267.58 1160.16 1233.87 1160.16 1191.2C1160.16 1145.12 1141.81 1110.56 1105.12 1087.52C1069.28 1063.63 1007.41 1051.68 919.521 1051.68H703.201L749.281 564.004H1275.36V703.524H890.081L870.881 910.884H956.641Z" fill="white"/>
</g>
</g>
<defs>
<filter id="filter0_d" x="-4" y="0" width="5608" height="2008" filterUnits="userSpaceOnUse" color-interpolation-filters="sRGB">
<feFlood flood-opacity="0" result="BackgroundImageFix"/>
<feColorMatrix in="SourceAlpha" type="matrix" values="0 0 0 0 0 0 0 0 0 0 0 0 0 0 0 0 0 0 127 0"/>
<feOffset dy="4"/>
<feGaussianBlur stdDeviation="2"/>
<feColorMatrix type="matrix" values="0 0 0 0 0 0 0 0 0 0 0 0 0 0 0 0 0 0 0.25 0"/>
<feBlend mode="normal" in2="BackgroundImageFix" result="effect1_dropShadow"/>
<feBlend mode="normal" in="SourceGraphic" in2="effect1_dropShadow" result="shape"/>
</filter>
<filter id="filter1_d" x="556.641" y="524.004" width="851.2" height="1068.8" filterUnits="userSpaceOnUse" color-interpolation-filters="sRGB">
<feFlood flood-opacity="0" result="BackgroundImageFix"/>
<feColorMatrix in="SourceAlpha" type="matrix" values="0 0 0 0 0 0 0 0 0 0 0 0 0 0 0 0 0 0 127 0"/>
<feOffset dy="40"/>
<feGaussianBlur stdDeviation="40"/>
<feColorMatrix type="matrix" values="0 0 0 0 0 0 0 0 0 0 0 0 0 0 0 0 0 0 0.25 0"/>
<feBlend mode="normal" in2="BackgroundImageFix" result="effect1_dropShadow"/>
<feBlend mode="normal" in="SourceGraphic" in2="effect1_dropShadow" result="shape"/>
</filter>
<linearGradient id="paint0_linear" x1="999.99" y1="0.00338902" x2="999.99" y2="2000" gradientUnits="userSpaceOnUse">
<stop stop-color="#3C344F"/>
<stop offset="1" stop-color="#17141F"/>
</linearGradient>
</defs>
</svg>
