<svg width="5620" height="2000" viewBox="0 0 5620 2000" fill="none" xmlns="http://www.w3.org/2000/svg">
<path d="M2963.35 1460L2962.07 866.084L2667.67 1357.6H2593.43L2299.03 873.764V1460H2140.31V564.004H2277.27L2633.11 1157.92L2982.55 564.004H3119.51L3120.79 1460H2963.35ZM3654.65 1468.96C3585.53 1468.96 3523.23 1454.03 3467.77 1424.16C3412.31 1394.3 3368.79 1352.91 3337.21 1300C3306.49 1246.24 3291.13 1185.66 3291.13 1118.24C3291.13 1050.83 3306.49 990.67 3337.21 937.764C3368.79 884.858 3412.31 843.47 3467.77 813.604C3523.23 783.738 3585.53 768.804 3654.65 768.804C3724.63 768.804 3787.35 783.738 3842.81 813.604C3898.27 843.47 3941.37 884.858 3972.09 937.764C4003.67 990.67 4019.45 1050.83 4019.45 1118.24C4019.45 1185.66 4003.67 1246.24 3972.09 1300C3941.37 1352.91 3898.27 1394.3 3842.81 1424.16C3787.35 1454.03 3724.63 1468.96 3654.65 1468.96ZM3654.65 1332C3713.53 1332 3762.17 1312.38 3800.57 1273.12C3838.97 1233.87 3858.17 1182.24 3858.17 1118.24C3858.17 1054.24 3838.97 1002.62 3800.57 963.364C3762.17 924.11 3713.53 904.484 3654.65 904.484C3595.77 904.484 3547.13 924.11 3508.73 963.364C3471.19 1002.62 3452.41 1054.24 3452.41 1118.24C3452.41 1182.24 3471.19 1233.87 3508.73 1273.12C3547.13 1312.38 3595.77 1332 3654.65 1332ZM4841.89 510.244V1460H4688.29V1371.68C4661.83 1404.11 4628.99 1428.43 4589.73 1444.64C4551.33 1460.86 4508.67 1468.96 4461.73 1468.96C4396.03 1468.96 4336.71 1454.46 4283.81 1425.44C4231.75 1396.43 4190.79 1355.47 4160.93 1302.56C4131.07 1248.8 4116.13 1187.36 4116.13 1118.24C4116.13 1049.12 4131.07 988.11 4160.93 935.204C4190.79 882.298 4231.75 841.338 4283.81 812.324C4336.71 783.31 4396.03 768.804 4461.73 768.804C4506.95 768.804 4548.35 776.484 4585.89 791.844C4623.43 807.204 4655.43 830.244 4681.89 860.964V510.244H4841.89ZM4480.93 1332C4519.33 1332 4553.89 1323.47 4584.61 1306.4C4615.33 1288.48 4639.65 1263.31 4657.57 1230.88C4675.49 1198.46 4684.45 1160.91 4684.45 1118.24C4684.45 1075.58 4675.49 1038.03 4657.57 1005.6C4639.65 973.178 4615.33 948.43 4584.61 931.364C4553.89 913.444 4519.33 904.484 4480.93 904.484C4442.53 904.484 4407.97 913.444 4377.25 931.364C4346.53 948.43 4322.21 973.178 4304.29 1005.6C4286.37 1038.03 4277.41 1075.58 4277.41 1118.24C4277.41 1160.91 4286.37 1198.46 4304.29 1230.88C4322.21 1263.31 4346.53 1288.48 4377.25 1306.4C4407.97 1323.47 4442.53 1332 4480.93 1332ZM5262.41 1468.96C5206.93 1468.96 5152.75 1461.71 5099.85 1447.2C5046.93 1432.7 5004.69 1414.35 4973.13 1392.16L5034.57 1270.56C5065.29 1291.04 5101.97 1307.68 5144.65 1320.48C5188.17 1332.43 5230.83 1338.4 5272.65 1338.4C5368.21 1338.4 5416.01 1313.23 5416.01 1262.88C5416.01 1238.99 5403.63 1222.35 5378.89 1212.96C5354.99 1203.58 5316.17 1194.62 5262.41 1186.08C5206.09 1177.55 5160.01 1167.74 5124.17 1156.64C5089.17 1145.55 5058.45 1126.35 5032.01 1099.04C5006.41 1070.88 4993.61 1032.06 4993.61 982.564C4993.61 917.71 5020.49 866.084 5074.25 827.684C5128.85 788.43 5202.25 768.804 5294.41 768.804C5341.33 768.804 5388.27 774.35 5435.21 785.444C5482.13 795.684 5520.53 809.764 5550.41 827.684L5488.97 949.284C5430.93 915.15 5365.65 898.084 5293.13 898.084C5246.19 898.084 5210.35 905.338 5185.61 919.844C5161.71 933.498 5149.77 951.844 5149.77 974.884C5149.77 1000.48 5162.57 1018.83 5188.17 1029.92C5214.61 1040.16 5255.15 1049.98 5309.77 1059.36C5364.37 1067.9 5409.17 1077.71 5444.17 1088.8C5479.15 1099.9 5509.01 1118.67 5533.77 1145.12C5559.37 1171.58 5572.17 1209.12 5572.17 1257.76C5572.17 1321.76 5544.43 1372.96 5488.97 1411.36C5433.49 1449.76 5357.97 1468.96 5262.41 1468.96Z" fill="url(#paint0_linear)"/>
<path d="M979.99 11.5504C992.366 4.40507 1007.61 4.40509 1019.99 11.5504L1846.02 488.455C1858.39 495.601 1866.02 508.807 1866.02 523.097V1476.91C1866.02 1491.2 1858.39 1504.41 1846.02 1511.55L1019.99 1988.46C1007.61 1995.6 992.366 1995.6 979.99 1988.46L153.965 1511.55C141.589 1504.41 133.965 1491.2 133.965 1476.91V523.097C133.965 508.807 141.589 495.601 153.965 488.455L979.99 11.5504Z" fill="url(#paint1_linear)"/>
<g filter="url(#filter0_d)">
<path d="M956.641 910.884C1082.93 910.884 1176.37 935.63 1236.96 985.124C1297.55 1033.76 1327.84 1100.32 1327.84 1184.8C1327.84 1238.56 1314.61 1287.2 1288.16 1330.72C1261.71 1374.24 1222.03 1408.8 1169.12 1434.4C1116.21 1460 1050.93 1472.8 973.281 1472.8C909.281 1472.8 847.415 1463.84 787.681 1445.92C727.947 1427.15 677.601 1401.55 636.641 1369.12L707.041 1239.84C740.321 1267.15 780.001 1288.91 826.081 1305.12C873.015 1320.48 921.227 1328.16 970.721 1328.16C1029.6 1328.16 1075.68 1316.22 1108.96 1292.32C1143.09 1267.58 1160.16 1233.87 1160.16 1191.2C1160.16 1145.12 1141.81 1110.56 1105.12 1087.52C1069.28 1063.63 1007.41 1051.68 919.521 1051.68H703.201L749.281 564.004H1275.36V703.524H890.081L870.881 910.884H956.641Z" fill="white"/>
</g>
<defs>
<filter id="filter0_d" x="556.641" y="524.004" width="851.2" height="1068.8" filterUnits="userSpaceOnUse" color-interpolation-filters="sRGB">
<feFlood flood-opacity="0" result="BackgroundImageFix"/>
<feColorMatrix in="SourceAlpha" type="matrix" values="0 0 0 0 0 0 0 0 0 0 0 0 0 0 0 0 0 0 127 0"/>
<feOffset dy="40"/>
<feGaussianBlur stdDeviation="40"/>
<feColorMatrix type="matrix" values="0 0 0 0 0 0 0 0 0 0 0 0 0 0 0 0 0 0 0.25 0"/>
<feBlend mode="normal" in2="BackgroundImageFix" result="effect1_dropShadow"/>
<feBlend mode="normal" in="SourceGraphic" in2="effect1_dropShadow" result="shape"/>
</filter>
<linearGradient id="paint0_linear" x1="3819.99" y1="220.004" x2="3819.99" y2="1780" gradientUnits="userSpaceOnUse">
<stop stop-color="#F27121"/>
<stop offset="1" stop-color="#E94057"/>
</linearGradient>
<linearGradient id="paint1_linear" x1="999.99" y1="0.00338902" x2="999.99" y2="2000" gradientUnits="userSpaceOnUse">
<stop stop-color="#3C344F"/>
<stop offset="1" stop-color="#17141F"/>
</linearGradient>
</defs>
</svg>
