<svg width="5600" height="2000" viewBox="0 0 5600 2000" fill="none" xmlns="http://www.w3.org/2000/svg">
<path d="M2943.36 1460L2942.08 866.079L2647.68 1357.6H2573.44L2279.04 873.759V1460H2120.32V563.999H2257.28L2613.12 1157.92L2962.56 563.999H3099.52L3100.8 1460H2943.36ZM3634.66 1468.96C3565.54 1468.96 3503.24 1454.03 3447.78 1424.16C3392.32 1394.29 3348.8 1352.91 3317.22 1300C3286.5 1246.24 3271.14 1185.65 3271.14 1118.24C3271.14 1050.83 3286.5 990.665 3317.22 937.759C3348.8 884.853 3392.32 843.465 3447.78 813.599C3503.24 783.733 3565.54 768.799 3634.66 768.799C3704.64 768.799 3767.36 783.733 3822.82 813.599C3878.28 843.465 3921.38 884.853 3952.1 937.759C3983.68 990.665 3999.46 1050.83 3999.46 1118.24C3999.46 1185.65 3983.68 1246.24 3952.1 1300C3921.38 1352.91 3878.28 1394.29 3822.82 1424.16C3767.36 1454.03 3704.64 1468.96 3634.66 1468.96ZM3634.66 1332C3693.54 1332 3742.18 1312.37 3780.58 1273.12C3818.98 1233.87 3838.18 1182.24 3838.18 1118.24C3838.18 1054.24 3818.98 1002.61 3780.58 963.359C3742.18 924.105 3693.54 904.479 3634.66 904.479C3575.78 904.479 3527.14 924.105 3488.74 963.359C3451.2 1002.61 3432.42 1054.24 3432.42 1118.24C3432.42 1182.24 3451.2 1233.87 3488.74 1273.12C3527.14 1312.37 3575.78 1332 3634.66 1332ZM4821.9 510.239V1460H4668.3V1371.68C4641.84 1404.11 4609 1428.43 4569.74 1444.64C4531.34 1460.85 4488.68 1468.96 4441.74 1468.96C4376.04 1468.96 4316.72 1454.45 4263.82 1425.44C4211.76 1396.43 4170.8 1355.47 4140.94 1302.56C4111.08 1248.8 4096.14 1187.36 4096.14 1118.24C4096.14 1049.12 4111.08 988.105 4140.94 935.199C4170.8 882.293 4211.76 841.333 4263.82 812.319C4316.72 783.305 4376.04 768.799 4441.74 768.799C4486.96 768.799 4528.36 776.479 4565.9 791.839C4603.44 807.199 4635.44 830.239 4661.9 860.959V510.239H4821.9ZM4460.94 1332C4499.34 1332 4533.9 1323.47 4564.62 1306.4C4595.34 1288.48 4619.66 1263.31 4637.58 1230.88C4655.5 1198.45 4664.46 1160.91 4664.46 1118.24C4664.46 1075.57 4655.5 1038.03 4637.58 1005.6C4619.66 973.173 4595.34 948.425 4564.62 931.359C4533.9 913.439 4499.34 904.479 4460.94 904.479C4422.54 904.479 4387.98 913.439 4357.26 931.359C4326.54 948.425 4302.22 973.173 4284.3 1005.6C4266.38 1038.03 4257.42 1075.57 4257.42 1118.24C4257.42 1160.91 4266.38 1198.45 4284.3 1230.88C4302.22 1263.31 4326.54 1288.48 4357.26 1306.4C4387.98 1323.47 4422.54 1332 4460.94 1332ZM5242.42 1468.96C5186.94 1468.96 5132.76 1461.71 5079.86 1447.2C5026.94 1432.69 4984.7 1414.35 4953.14 1392.16L5014.58 1270.56C5045.3 1291.04 5081.98 1307.68 5124.66 1320.48C5168.18 1332.43 5210.84 1338.4 5252.66 1338.4C5348.22 1338.4 5396.02 1313.23 5396.02 1262.88C5396.02 1238.99 5383.64 1222.35 5358.9 1212.96C5335 1203.57 5296.18 1194.61 5242.42 1186.08C5186.1 1177.55 5140.02 1167.73 5104.18 1156.64C5069.18 1145.55 5038.46 1126.35 5012.02 1099.04C4986.42 1070.88 4973.62 1032.05 4973.62 982.559C4973.62 917.705 5000.5 866.079 5054.26 827.679C5108.86 788.425 5182.26 768.799 5274.42 768.799C5321.34 768.799 5368.28 774.345 5415.22 785.439C5462.14 795.679 5500.54 809.759 5530.42 827.679L5468.98 949.279C5410.94 915.145 5345.66 898.079 5273.14 898.079C5226.2 898.079 5190.36 905.333 5165.62 919.839C5141.72 933.493 5129.78 951.839 5129.78 974.879C5129.78 1000.48 5142.58 1018.83 5168.18 1029.92C5194.62 1040.16 5235.16 1049.97 5289.78 1059.36C5344.38 1067.89 5389.18 1077.71 5424.18 1088.8C5459.16 1099.89 5489.02 1118.67 5513.78 1145.12C5539.38 1171.57 5552.18 1209.12 5552.18 1257.76C5552.18 1321.76 5524.44 1372.96 5468.98 1411.36C5413.5 1449.76 5337.98 1468.96 5242.42 1468.96Z" fill="white"/>
<path d="M980 11.5455C992.376 4.40019 1007.62 4.40021 1020 11.5455L1846.03 488.453C1858.4 495.597 1866.03 508.802 1866.03 523.092V1476.9C1866.03 1491.19 1858.4 1504.4 1846.03 1511.55L1020 1988.45C1007.62 1995.6 992.376 1995.6 980 1988.45L153.975 1511.54C141.599 1504.4 133.975 1491.19 133.975 1476.9V523.092C133.975 508.802 141.599 495.597 153.975 488.451L980 11.5455Z" fill="url(#paint0_linear)"/>
<g filter="url(#filter0_d)">
<g filter="url(#filter1_d)">
<path d="M956.641 910.879C1082.93 910.879 1176.37 935.625 1236.96 985.119C1297.55 1033.76 1327.84 1100.32 1327.84 1184.8C1327.84 1238.56 1314.61 1287.2 1288.16 1330.72C1261.71 1374.24 1222.03 1408.8 1169.12 1434.4C1116.21 1460 1050.93 1472.8 973.281 1472.8C909.281 1472.8 847.415 1463.84 787.681 1445.92C727.947 1427.14 677.601 1401.54 636.641 1369.12L707.041 1239.84C740.321 1267.14 780.001 1288.9 826.081 1305.12C873.015 1320.48 921.227 1328.16 970.721 1328.16C1029.6 1328.16 1075.68 1316.21 1108.96 1292.32C1143.09 1267.57 1160.16 1233.86 1160.16 1191.2C1160.16 1145.12 1141.81 1110.56 1105.12 1087.52C1069.28 1063.62 1007.41 1051.68 919.521 1051.68H703.201L749.281 563.999H1275.36V703.519H890.081L870.881 910.879H956.641Z" fill="white"/>
</g>
</g>
<defs>
<filter id="filter0_d" x="632.641" y="561.999" width="699.2" height="916.8" filterUnits="userSpaceOnUse" color-interpolation-filters="sRGB">
<feFlood flood-opacity="0" result="BackgroundImageFix"/>
<feColorMatrix in="SourceAlpha" type="matrix" values="0 0 0 0 0 0 0 0 0 0 0 0 0 0 0 0 0 0 127 0"/>
<feOffset dy="2"/>
<feGaussianBlur stdDeviation="2"/>
<feColorMatrix type="matrix" values="0 0 0 0 0 0 0 0 0 0 0 0 0 0 0 0 0 0 0.25 0"/>
<feBlend mode="normal" in2="BackgroundImageFix" result="effect1_dropShadow"/>
<feBlend mode="normal" in="SourceGraphic" in2="effect1_dropShadow" result="shape"/>
</filter>
<filter id="filter1_d" x="556.641" y="523.999" width="851.2" height="1068.8" filterUnits="userSpaceOnUse" color-interpolation-filters="sRGB">
<feFlood flood-opacity="0" result="BackgroundImageFix"/>
<feColorMatrix in="SourceAlpha" type="matrix" values="0 0 0 0 0 0 0 0 0 0 0 0 0 0 0 0 0 0 127 0"/>
<feOffset dy="40"/>
<feGaussianBlur stdDeviation="40"/>
<feColorMatrix type="matrix" values="0 0 0 0 0 0 0 0 0 0 0 0 0 0 0 0 0 0 0.25 0"/>
<feBlend mode="normal" in2="BackgroundImageFix" result="effect1_dropShadow"/>
<feBlend mode="normal" in="SourceGraphic" in2="effect1_dropShadow" result="shape"/>
</filter>
<linearGradient id="paint0_linear" x1="1000" y1="-0.00149415" x2="1000" y2="2000" gradientUnits="userSpaceOnUse">
<stop stop-color="#E57C0B"/>
<stop offset="1" stop-color="#E94057"/>
</linearGradient>
</defs>
</svg>
