<svg width="6632" height="2583" viewBox="0 0 6632 2583" fill="none" xmlns="http://www.w3.org/2000/svg">
<g opacity="0.5">
<path d="M5588.64 657.242C5588.84 706.851 5548.64 747.371 5499.03 747.568C5449.42 747.766 5408.9 707.567 5408.7 657.958C5408.5 608.348 5448.7 567.829 5498.31 567.631C5547.92 567.434 5588.44 607.637 5588.64 657.242Z" fill="#89634A"/>
<path d="M6206.45 541.267C6206.65 590.877 6166.45 631.396 6116.84 631.594C6067.23 631.791 6026.71 591.593 6026.51 541.983C6026.31 492.374 6066.51 451.854 6116.12 451.657C6165.73 451.459 6206.25 491.658 6206.45 541.267Z" fill="#89634A"/>
<path d="M5354.07 291.225C5327.48 291.33 5302.93 279.822 5286.08 260.566C5331.81 222.948 5381.93 190.495 5435.55 164.08C5440.77 175.546 5443.64 188.037 5443.69 200.898C5443.88 250.508 5403.68 291.027 5354.07 291.225Z" fill="#89634A"/>
<path d="M6133.4 1453.91C6163.76 1453.79 6191.61 1469.18 6208.13 1493.38C6159.11 1526.8 6106.04 1554.7 6049.83 1576.22C6045.93 1566.14 6043.84 1555.38 6043.79 1544.24C6043.6 1494.64 6083.79 1454.11 6133.4 1453.91Z" fill="#89634A"/>
<path d="M6126.37 1009.95C6126.68 1086.62 6064.55 1149.24 5987.88 1149.54C5911.21 1149.85 5848.59 1087.72 5848.29 1011.06C5847.98 934.385 5910.11 871.765 5986.78 871.46C6063.44 871.155 6126.07 933.279 6126.37 1009.95Z" fill="#89634A"/>
<path d="M5390.6 790.989C5420.32 815.105 5458.19 829.522 5499.35 829.358C5594.06 828.981 5670.8 751.625 5670.43 656.916C5670.22 604.481 5646.39 557.579 5609.1 526.197C5647.75 557.565 5672.58 605.359 5672.79 658.903C5673.17 753.611 5596.42 830.967 5501.72 831.344C5459.45 831.512 5420.66 816.29 5390.6 790.989Z" fill="#89634A"/>
<path d="M6117.17 713.381C6211.87 713.005 6288.62 635.648 6288.24 540.94C6288.03 488.505 6264.2 441.602 6226.91 410.22C6265.56 441.593 6290.39 489.383 6290.6 542.926C6290.98 637.634 6214.24 714.991 6119.53 715.368C6077.26 715.536 6038.47 700.309 6008.42 675.012C6038.13 699.125 6076 713.545 6117.17 713.381Z" fill="#89634A"/>
<path d="M5670.43 656.917C5670.8 751.625 5594.06 828.982 5499.35 829.358C5458.19 829.522 5420.31 815.106 5390.6 790.99C5351.95 759.621 5327.12 711.831 5326.91 658.284C5326.53 563.575 5403.28 486.219 5497.99 485.842C5540.26 485.674 5579.04 500.9 5609.1 526.197C5646.39 557.583 5670.22 604.482 5670.43 656.917ZM5408.7 657.958C5408.9 707.568 5449.42 747.766 5499.03 747.569C5548.64 747.371 5588.83 706.852 5588.64 657.242C5588.44 607.633 5547.92 567.434 5498.31 567.632C5448.7 567.829 5408.5 608.353 5408.7 657.958Z" fill="black"/>
<path d="M6288.24 540.94C6288.62 635.649 6211.87 713.005 6117.16 713.382C6076 713.546 6038.13 699.129 6008.41 675.013C5969.76 643.645 5944.94 595.851 5944.72 542.307C5944.35 447.599 6021.09 370.242 6115.8 369.866C6158.07 369.697 6196.85 384.924 6226.91 410.221C6264.2 441.603 6288.03 488.501 6288.24 540.94ZM6026.51 541.982C6026.71 591.591 6067.23 631.79 6116.84 631.592C6166.45 631.395 6206.65 590.875 6206.45 541.266C6206.25 491.656 6165.73 451.458 6116.12 451.655C6066.51 451.853 6026.31 492.372 6026.51 541.982Z" fill="black"/>
</g>
<path d="M5760.17 1412.89C5774.85 1380.91 5782.4 1346.09 5782.27 1310.29C5782.1 1267.79 5770.65 1225.83 5749.14 1188.92C5709 1120.02 5637.56 1075.79 5559.65 1068.95C5552.19 990.694 5507.02 919.818 5438.17 880.431C5368.97 840.846 5285.01 838.243 5214.13 871.254C5178.74 821.294 5125.91 786.575 5065.94 773.997C5070.73 603.452 5131.7 446.645 5230.95 321.438C5262.78 354.015 5306.9 373.199 5354.41 373.01C5415.21 372.769 5468.57 340.772 5498.91 292.849C5515.83 266.126 5525.62 234.475 5525.49 200.569C5525.39 176.682 5520.35 153.404 5510.91 132.004C5511.02 131.898 5511.12 131.791 5511.23 131.684C5533.44 123.572 5556.15 116.485 5579.26 110.41C5640.84 94.2319 5705.4 85.4442 5771.97 85.1794C6197.01 83.4884 6544.19 427.915 6545.88 852.959C6546.55 1021.09 6493.01 1176.98 6401.8 1304.17C6399.41 1306.85 6396.9 1310.29 6394.31 1314.29C6358.97 1361.93 6318.37 1405.45 6273.2 1443.79C6241.38 1399.7 6189.48 1371.9 6133.08 1372.13C6095.67 1372.27 6061.08 1384.48 6032.91 1404.98C5991.47 1435.16 5964.05 1483.39 5962.18 1537.97C5962.07 1540.1 5962 1542.29 5962.01 1544.57C5962.02 1546.22 5962.08 1547.87 5962.14 1549.52C5928.32 1555.4 5893.76 1559.08 5858.58 1560.35C5845.54 1500.47 5810.41 1447.91 5760.17 1412.89ZM6290.6 542.924C6290.39 489.381 6265.56 441.591 6226.91 410.218C6196.85 384.921 6158.07 369.695 6115.8 369.863C6021.09 370.24 5944.35 447.596 5944.72 542.304C5944.94 595.848 5969.77 643.642 6008.41 675.01C6038.47 700.307 6077.26 715.534 6119.53 715.366C6214.24 714.989 6290.98 637.636 6290.6 542.924ZM5672.79 658.904C5672.58 605.36 5647.75 557.57 5609.1 526.198C5579.05 500.901 5540.26 485.674 5497.99 485.842C5403.28 486.219 5326.54 563.576 5326.91 658.284C5327.13 711.827 5351.96 759.617 5390.61 790.99C5420.66 816.287 5459.45 831.513 5501.72 831.345C5596.42 830.968 5673.17 753.616 5672.79 658.904ZM6210.53 1011.61C6210.26 942.849 6178.41 881.465 6128.82 841.127C6090.24 808.855 6040.56 789.455 5986.45 789.67C5864.68 790.155 5766.01 889.617 5766.5 1011.38C5766.77 1080.14 5798.62 1141.53 5848.21 1181.86C5886.78 1214.14 5936.46 1233.54 5990.58 1233.32C6112.34 1232.84 6211.01 1133.37 6210.53 1011.61Z" fill="#D4B783"/>
<path d="M5988.21 1231.33C6109.98 1230.85 6208.65 1131.39 6208.17 1009.62C6207.9 941.971 6177.05 881.478 6128.82 841.126C6178.41 881.461 6210.26 942.845 6210.53 1011.61C6211.02 1133.37 6112.35 1232.84 5990.58 1233.32C5936.47 1233.54 5886.79 1214.14 5848.22 1181.86C5886.44 1212.96 5935.21 1231.54 5988.21 1231.33Z" fill="#89634A"/>
<path d="M5770.65 1708.61L5767.26 1708.57C5745.67 1708.39 5727.94 1691.46 5726.76 1669.9C5723.45 1609.09 5686.89 1555.53 5631.36 1530.14C5620.32 1525.09 5612.09 1515.4 5608.9 1503.69C5605.71 1491.98 5607.89 1479.45 5614.85 1469.5C5634.08 1442 5644.6 1408.34 5644.47 1374.73C5644.36 1346.25 5636.66 1318.09 5622.22 1293.29C5590.22 1238.38 5528.62 1206.8 5465.27 1212.82C5453.19 1213.97 5441.22 1209.69 5432.6 1201.14C5423.98 1192.59 5419.62 1180.61 5420.66 1168.57C5421.08 1163.68 5421.29 1158.7 5421.27 1153.78C5421.04 1095.42 5389.49 1041.19 5338.93 1012.27C5283.77 980.718 5214.62 984.167 5162.77 1021.06C5152.88 1028.09 5140.38 1030.38 5128.64 1027.28C5116.9 1024.18 5107.15 1016.03 5102.01 1005.04C5076.18 949.735 5022.36 913.61 4961.55 910.764C4940 909.754 4922.94 892.175 4922.58 870.604L4922.51 867.268C4922.45 864.659 4922.4 862.042 4922.39 859.42C4920.52 389.273 5301.49 5.26252 5771.64 3.39214C6241.79 1.52177 6625.8 382.489 6627.67 852.636C6629.54 1322.78 6248.57 1706.79 5778.42 1708.66C5775.83 1708.67 5773.24 1708.64 5770.65 1708.61ZM5286.09 260.565C5302.94 279.821 5327.48 291.329 5354.08 291.223C5403.69 291.026 5443.89 250.506 5443.69 200.897C5443.64 188.035 5440.77 175.545 5435.55 164.078C5381.93 190.493 5331.81 222.947 5286.09 260.565ZM6208.14 1493.39C6191.62 1469.18 6163.77 1453.8 6133.41 1453.92C6083.8 1454.11 6043.6 1494.63 6043.8 1544.24C6043.84 1555.39 6045.94 1566.14 6049.83 1576.22C6106.04 1554.7 6159.11 1526.81 6208.14 1493.39ZM5971.96 1601.39C5966.06 1584.78 5962.72 1567.26 5962.13 1549.51C5962.08 1547.86 5962.01 1546.22 5962.01 1544.56C5962 1542.35 5962.11 1540.16 5962.18 1537.96C5964.04 1483.38 5991.46 1435.15 6032.91 1404.98C6061.07 1384.47 6095.66 1372.27 6133.08 1372.12C6189.48 1371.89 6241.37 1399.69 6273.2 1443.78C6318.37 1405.44 6358.97 1361.92 6394.31 1314.28C6396.81 1310.91 6399.35 1307.57 6401.8 1304.16C6493.01 1176.97 6546.55 1021.08 6545.88 852.953C6544.19 427.913 6197.01 83.4867 5771.97 85.1777C5705.41 85.4424 5640.84 94.226 5579.25 110.412C5556.14 116.487 5533.44 123.575 5511.23 131.687C5511.09 131.736 5510.96 131.778 5510.83 131.827C5510.85 131.884 5510.87 131.946 5510.9 132.007C5520.34 153.407 5525.38 176.681 5525.48 200.571C5525.61 234.477 5515.82 266.128 5498.9 292.851C5468.56 340.771 5415.21 372.771 5354.4 373.013C5306.9 373.202 5262.77 354.022 5230.94 321.44C5229.15 319.603 5227.37 317.749 5225.66 315.83C5093.51 450.215 5010.14 632.645 5004.48 834.045C5064.9 846.716 5118.14 881.702 5153.8 932.038C5225.22 898.776 5309.81 901.396 5379.54 941.282C5448.91 980.965 5494.43 1052.38 5501.95 1131.23C5580.45 1138.12 5652.43 1182.69 5692.88 1252.11C5714.55 1289.3 5726.09 1331.59 5726.26 1374.4C5726.4 1410.47 5718.78 1445.56 5704 1477.79C5754.61 1513.07 5790.01 1566.03 5803.15 1626.36C5861.29 1624.27 5917.79 1615.71 5971.96 1601.39Z" fill="black"/>
<path d="M6208.17 1009.62C6208.65 1131.39 6109.98 1230.85 5988.21 1231.33C5935.21 1231.54 5886.44 1212.96 5848.22 1181.86C5798.63 1141.53 5766.78 1080.15 5766.5 1011.38C5766.02 889.616 5864.69 790.155 5986.46 789.67C6040.57 789.455 6090.25 808.854 6128.82 841.127C6177.05 881.479 6207.9 941.971 6208.17 1009.62ZM5848.29 1011.06C5848.6 1087.72 5911.22 1149.85 5987.89 1149.54C6064.56 1149.24 6126.68 1086.62 6126.38 1009.95C6126.07 933.279 6063.45 871.155 5986.78 871.46C5910.11 871.765 5847.99 934.386 5848.29 1011.06Z" fill="black"/>
<path d="M2829.39 2048.8L2828.11 1454.88L2533.71 1946.4H2459.47L2165.07 1462.56V2048.8H2006.35V1152.8H2143.31L2499.15 1746.72L2848.59 1152.8H2985.55L2986.83 2048.8H2829.39ZM3520.69 2057.76C3451.57 2057.76 3389.27 2042.83 3333.81 2012.96C3278.35 1983.1 3234.83 1941.71 3203.25 1888.8C3172.53 1835.04 3157.17 1774.46 3157.17 1707.04C3157.17 1639.63 3172.53 1579.47 3203.25 1526.56C3234.83 1473.66 3278.35 1432.27 3333.81 1402.4C3389.27 1372.54 3451.57 1357.6 3520.69 1357.6C3590.67 1357.6 3653.39 1372.54 3708.85 1402.4C3764.31 1432.27 3807.41 1473.66 3838.13 1526.56C3869.71 1579.47 3885.49 1639.63 3885.49 1707.04C3885.49 1774.46 3869.71 1835.04 3838.13 1888.8C3807.41 1941.71 3764.31 1983.1 3708.85 2012.96C3653.39 2042.83 3590.67 2057.76 3520.69 2057.76ZM3520.69 1920.8C3579.57 1920.8 3628.21 1901.18 3666.61 1861.92C3705.01 1822.67 3724.21 1771.04 3724.21 1707.04C3724.21 1643.04 3705.01 1591.42 3666.61 1552.16C3628.21 1512.91 3579.57 1493.28 3520.69 1493.28C3461.81 1493.28 3413.17 1512.91 3374.77 1552.16C3337.23 1591.42 3318.45 1643.04 3318.45 1707.04C3318.45 1771.04 3337.23 1822.67 3374.77 1861.92C3413.17 1901.18 3461.81 1920.8 3520.69 1920.8ZM4707.93 1099.04V2048.8H4554.33V1960.48C4527.87 1992.91 4495.03 2017.23 4455.77 2033.44C4417.37 2049.66 4374.71 2057.76 4327.77 2057.76C4262.07 2057.76 4202.75 2043.26 4149.85 2014.24C4097.79 1985.23 4056.83 1944.27 4026.97 1891.36C3997.11 1837.6 3982.17 1776.16 3982.17 1707.04C3982.17 1637.92 3997.11 1576.91 4026.97 1524C4056.83 1471.1 4097.79 1430.14 4149.85 1401.12C4202.75 1372.11 4262.07 1357.6 4327.77 1357.6C4372.99 1357.6 4414.39 1365.28 4451.93 1380.64C4489.47 1396 4521.47 1419.04 4547.93 1449.76V1099.04H4707.93ZM4346.97 1920.8C4385.37 1920.8 4419.93 1912.27 4450.65 1895.2C4481.37 1877.28 4505.69 1852.11 4523.61 1819.68C4541.53 1787.26 4550.49 1749.71 4550.49 1707.04C4550.49 1664.38 4541.53 1626.83 4523.61 1594.4C4505.69 1561.98 4481.37 1537.23 4450.65 1520.16C4419.93 1502.24 4385.37 1493.28 4346.97 1493.28C4308.57 1493.28 4274.01 1502.24 4243.29 1520.16C4212.57 1537.23 4188.25 1561.98 4170.33 1594.4C4152.41 1626.83 4143.45 1664.38 4143.45 1707.04C4143.45 1749.71 4152.41 1787.26 4170.33 1819.68C4188.25 1852.11 4212.57 1877.28 4243.29 1895.2C4274.01 1912.27 4308.57 1920.8 4346.97 1920.8ZM5128.45 2057.76C5072.97 2057.76 5018.79 2050.51 4965.89 2036C4912.97 2021.5 4870.73 2003.15 4839.17 1980.96L4900.61 1859.36C4931.33 1879.84 4968.01 1896.48 5010.69 1909.28C5054.21 1921.23 5096.87 1927.2 5138.69 1927.2C5234.25 1927.2 5282.05 1902.03 5282.05 1851.68C5282.05 1827.79 5269.67 1811.15 5244.93 1801.76C5221.03 1792.38 5182.21 1783.42 5128.45 1774.88C5072.13 1766.35 5026.05 1756.54 4990.21 1745.44C4955.21 1734.35 4924.49 1715.15 4898.05 1687.84C4872.45 1659.68 4859.65 1620.86 4859.65 1571.36C4859.65 1506.51 4886.53 1454.88 4940.29 1416.48C4994.89 1377.23 5068.29 1357.6 5160.45 1357.6C5207.37 1357.6 5254.31 1363.15 5301.25 1374.24C5348.17 1384.48 5386.57 1398.56 5416.45 1416.48L5355.01 1538.08C5296.97 1503.95 5231.69 1486.88 5159.17 1486.88C5112.23 1486.88 5076.39 1494.14 5051.65 1508.64C5027.75 1522.3 5015.81 1540.64 5015.81 1563.68C5015.81 1589.28 5028.61 1607.63 5054.21 1618.72C5080.65 1628.96 5121.19 1638.78 5175.81 1648.16C5230.41 1656.7 5275.21 1666.51 5310.21 1677.6C5345.19 1688.7 5375.05 1707.47 5399.81 1733.92C5425.41 1760.38 5438.21 1797.92 5438.21 1846.56C5438.21 1910.56 5410.47 1961.76 5355.01 2000.16C5299.53 2038.56 5224.01 2057.76 5128.45 2057.76Z" fill="url(#paint0_linear)"/>
<path d="M846.025 600.359C858.401 593.214 873.649 593.214 886.025 600.359L1712.05 1077.26C1724.43 1084.41 1732.05 1097.62 1732.05 1111.91V2065.72C1732.05 2080.01 1724.43 2093.21 1712.05 2100.36L886.025 2577.27C873.649 2584.41 858.401 2584.41 846.025 2577.27L20 2100.36C7.624 2093.21 0 2080.01 0 2065.72V1111.91C0 1097.62 7.624 1084.41 20 1077.26L846.025 600.359Z" fill="url(#paint1_linear)"/>
<g filter="url(#filter0_d)">
<path d="M822.666 1499.69C948.96 1499.69 1042.4 1524.44 1102.99 1573.93C1163.57 1622.57 1193.87 1689.13 1193.87 1773.61C1193.87 1827.37 1180.64 1876.01 1154.19 1919.53C1127.73 1963.05 1088.05 1997.61 1035.15 2023.21C982.24 2048.81 916.96 2061.61 839.306 2061.61C775.306 2061.61 713.44 2052.65 653.706 2034.73C593.972 2015.96 543.626 1990.36 502.666 1957.93L573.066 1828.65C606.346 1855.96 646.026 1877.72 692.106 1893.93C739.04 1909.29 787.252 1916.97 836.746 1916.97C895.626 1916.97 941.706 1905.03 974.986 1881.13C1009.12 1856.39 1026.19 1822.68 1026.19 1780.01C1026.19 1733.93 1007.84 1699.37 971.146 1676.33C935.306 1652.44 873.44 1640.49 785.546 1640.49H569.226L615.306 1152.81H1141.39V1292.33H756.106L736.906 1499.69H822.666Z" fill="white"/>
</g>
<defs>
<filter id="filter0_d" x="422.666" y="1112.81" width="851.2" height="1068.8" filterUnits="userSpaceOnUse" color-interpolation-filters="sRGB">
<feFlood flood-opacity="0" result="BackgroundImageFix"/>
<feColorMatrix in="SourceAlpha" type="matrix" values="0 0 0 0 0 0 0 0 0 0 0 0 0 0 0 0 0 0 127 0"/>
<feOffset dy="40"/>
<feGaussianBlur stdDeviation="40"/>
<feColorMatrix type="matrix" values="0 0 0 0 0 0 0 0 0 0 0 0 0 0 0 0 0 0 0.25 0"/>
<feBlend mode="normal" in2="BackgroundImageFix" result="effect1_dropShadow"/>
<feBlend mode="normal" in="SourceGraphic" in2="effect1_dropShadow" result="shape"/>
</filter>
<linearGradient id="paint0_linear" x1="3686.03" y1="808.803" x2="3686.03" y2="2368.8" gradientUnits="userSpaceOnUse">
<stop stop-color="#F27121"/>
<stop offset="1" stop-color="#E94057"/>
</linearGradient>
<linearGradient id="paint1_linear" x1="866.025" y1="588.812" x2="866.025" y2="2588.81" gradientUnits="userSpaceOnUse">
<stop stop-color="#E57C0B"/>
<stop offset="1" stop-color="#E94057"/>
</linearGradient>
</defs>
</svg>
