<svg width="6527" height="1988" viewBox="0 0 6527 1988" fill="none" xmlns="http://www.w3.org/2000/svg">
<g opacity="0.5">
<path d="M5687.12 455.212C5671.9 486.942 5663.75 521.628 5663.27 557.42C5662.71 599.915 5673.45 642.071 5694.32 679.341C5733.28 748.913 5803.95 794.361 5881.73 802.529C5887.86 880.902 5931.81 952.539 5999.98 993.096C6068.49 1033.86 6152.39 1037.89 6223.82 1006.1C6258.36 1056.66 6310.59 1092.27 6370.33 1105.87C6362.63 1276.31 6298.99 1432.05 6197.62 1555.55C6166.35 1522.43 6122.56 1502.5 6075.06 1501.87C6014.26 1501.08 5960.36 1532.16 5929.21 1579.55C5911.84 1605.98 5901.5 1637.46 5901.06 1671.37C5900.75 1695.25 5905.39 1718.61 5914.47 1740.17C5914.35 1740.28 5914.25 1740.38 5914.13 1740.49C5891.79 1748.22 5868.97 1754.92 5845.75 1760.6C5783.91 1775.72 5719.21 1783.4 5652.65 1782.53C5227.63 1776.96 4886.39 1426.66 4891.95 1001.64C4894.16 833.531 4950.35 678.574 5043.72 552.963C5046.15 550.32 5048.72 546.922 5051.38 542.973C5087.53 495.943 5128.87 453.124 5174.69 415.558C5205.75 460.185 5257.17 488.866 5313.56 489.605C5350.98 490.095 5385.77 478.486 5414.28 458.463C5456.23 428.997 5484.47 381.246 5487.27 326.707C5487.42 324.57 5487.53 322.388 5487.56 320.106C5487.58 318.454 5487.54 316.805 5487.51 315.157C5521.43 309.855 5556.05 306.763 5591.24 306.095C5603.26 366.189 5637.49 419.344 5687.12 455.212ZM5141.9 1315.99C5141.2 1369.53 5165.21 1417.74 5203.32 1449.77C5232.94 1475.58 5271.46 1491.46 5313.73 1492.02C5408.43 1493.26 5486.48 1417.22 5487.72 1322.52C5488.42 1268.98 5464.41 1220.77 5426.31 1188.75C5396.69 1162.94 5358.16 1147.05 5315.9 1146.5C5221.2 1145.26 5143.14 1221.29 5141.9 1315.99ZM5761.6 1210.58C5760.9 1264.12 5784.91 1312.33 5823.02 1344.36C5852.64 1370.16 5891.16 1386.05 5933.42 1386.61C6028.13 1387.85 6106.18 1311.81 6107.42 1217.11C6108.12 1163.57 6084.11 1115.36 6046 1083.34C6016.38 1057.53 5977.86 1041.64 5935.6 1041.09C5840.9 1039.85 5762.84 1115.88 5761.6 1210.58ZM5229.97 848.744C5229.07 917.5 5259.86 979.419 5308.76 1020.6C5346.78 1053.52 5396.12 1073.77 5450.22 1074.48C5571.98 1076.07 5672.34 978.312 5673.93 856.557C5674.83 787.802 5644.04 725.883 5595.14 684.704C5557.13 651.777 5507.78 631.532 5453.68 630.823C5331.92 629.228 5231.56 726.99 5229.97 848.744Z" fill="#D4B783"/>
<path d="M5845.72 1213.68C5846.37 1164.08 5887.25 1124.25 5936.86 1124.9C5986.46 1125.55 6026.29 1166.43 6025.64 1216.04C6024.99 1265.65 5984.11 1305.47 5934.5 1304.82C5884.89 1304.17 5845.07 1263.28 5845.72 1213.68Z" fill="#89634A"/>
<path d="M5226.02 1319.09C5226.67 1269.48 5267.55 1229.65 5317.16 1230.3C5366.76 1230.95 5406.59 1271.84 5405.94 1321.44C5405.29 1371.05 5364.4 1410.88 5314.8 1410.23C5265.19 1409.58 5225.37 1368.69 5226.02 1319.09Z" fill="#89634A"/>
<path d="M6074 1583.65C6100.59 1584 6124.93 1595.93 6141.45 1615.47C6095.09 1652.3 6044.42 1683.89 5990.36 1709.39C5985.34 1697.83 5982.68 1685.29 5982.85 1672.43C5983.5 1622.83 6024.39 1583 6074 1583.65Z" fill="#89634A"/>
<path d="M5314.64 407.821C5284.28 407.424 5256.7 391.562 5240.6 367.081C5290.18 334.505 5343.72 307.518 5400.29 286.963C5404.02 297.11 5405.92 307.9 5405.78 319.038C5405.13 368.64 5364.24 408.471 5314.64 407.821Z" fill="#89634A"/>
<path d="M5314.08 851.843C5315.09 775.179 5378.28 713.628 5454.94 714.633C5531.6 715.637 5593.15 778.822 5592.15 855.486C5591.14 932.15 5527.96 993.7 5451.29 992.696C5374.63 991.691 5313.08 928.506 5314.08 851.843Z" fill="#89634A"/>
<path d="M6046.01 1083.34C6016.71 1058.72 5979.09 1043.65 5937.93 1043.12C5843.23 1041.87 5765.17 1117.91 5763.93 1212.61C5763.25 1265.04 5786.27 1312.34 5823.02 1344.36C5784.91 1312.33 5760.9 1264.12 5761.6 1210.58C5762.84 1115.88 5840.9 1039.85 5935.6 1041.09C5977.86 1041.64 6016.39 1057.53 6046.01 1083.34Z" fill="#89634A"/>
<path d="M5318.23 1148.52C5223.52 1147.28 5145.47 1223.32 5144.23 1318.02C5143.54 1370.45 5166.57 1417.75 5203.32 1449.77C5165.21 1417.74 5141.2 1369.53 5141.9 1315.99C5143.14 1221.29 5221.2 1145.26 5315.9 1146.5C5358.17 1147.05 5396.68 1162.94 5426.3 1188.74C5397.01 1164.13 5359.39 1149.06 5318.23 1148.52Z" fill="#89634A"/>
<path d="M5456 632.85C5334.25 631.255 5233.89 729.017 5232.3 850.772C5231.41 918.419 5261.22 979.429 5308.75 1020.6C5259.86 979.424 5229.06 917.504 5229.96 848.745C5231.56 726.99 5331.91 629.228 5453.67 630.824C5507.78 631.533 5557.12 651.778 5595.14 684.704C5557.45 652.964 5509.01 633.545 5456 632.85Z" fill="#89634A"/>
<path d="M5763.93 1212.61C5765.17 1117.91 5843.23 1041.87 5937.93 1043.12C5979.09 1043.65 6016.71 1058.72 6046.01 1083.34C6084.11 1115.36 6108.12 1163.57 6107.42 1217.11C6106.18 1311.81 6028.13 1387.85 5933.43 1386.61C5891.16 1386.05 5852.64 1370.16 5823.02 1344.36C5786.27 1312.34 5763.25 1265.04 5763.93 1212.61ZM6025.64 1216.04C6026.29 1166.43 5986.46 1125.55 5936.86 1124.9C5887.25 1124.25 5846.37 1164.08 5845.72 1213.68C5845.07 1263.29 5884.89 1304.17 5934.5 1304.82C5984.11 1305.47 6024.99 1265.64 6025.64 1216.04Z" fill="black"/>
<path d="M5144.23 1318.02C5145.47 1223.32 5223.53 1147.28 5318.23 1148.52C5359.39 1149.06 5397.01 1164.12 5426.31 1188.74C5464.41 1220.77 5488.42 1268.98 5487.72 1322.52C5486.48 1417.22 5408.43 1493.25 5313.73 1492.01C5271.46 1491.46 5232.94 1475.57 5203.32 1449.77C5166.57 1417.75 5143.54 1370.45 5144.23 1318.02ZM5405.94 1321.45C5406.59 1271.84 5366.76 1230.96 5317.15 1230.31C5267.55 1229.66 5226.66 1269.48 5226.01 1319.09C5225.36 1368.7 5265.19 1409.58 5314.8 1410.23C5364.4 1410.88 5405.29 1371.05 5405.94 1321.45Z" fill="black"/>
<path d="M5681.68 159.36L5685.08 159.457C5706.66 160.002 5724.1 177.236 5724.91 198.808C5727.18 259.675 5762.82 313.85 5817.91 340.187C5828.86 345.422 5836.92 355.253 5839.91 367.014C5842.9 378.779 5840.51 391.262 5833.38 401.091C5813.68 428.259 5802.59 461.737 5802.15 495.346C5801.77 523.823 5808.98 552.109 5823.01 577.15C5854.06 632.599 5915.11 665.234 5978.56 660.291C5990.66 659.349 6002.55 663.832 6011.02 672.527C6019.49 681.227 6023.65 693.277 6022.41 705.301C6021.9 710.182 6021.61 715.152 6021.54 720.071C6020.78 778.431 6051.4 833.187 6101.45 862.967C6156.07 895.461 6225.26 893.193 6277.73 857.195C6287.74 850.328 6300.28 848.26 6311.97 851.558C6323.65 854.852 6333.27 863.166 6338.21 874.249C6363.09 929.984 6416.29 967.024 6477.04 970.908C6498.57 972.286 6515.33 990.153 6515.33 1011.73L6515.34 1015.06C6515.35 1017.67 6515.35 1020.29 6515.32 1022.91C6509.16 1493.02 6121.68 1870.47 5651.57 1864.31C5181.46 1858.15 4804.01 1470.68 4810.17 1000.57C4816.33 530.46 5203.81 153.012 5673.92 159.172C5676.51 159.206 5679.1 159.281 5681.68 159.36ZM6141.45 1615.47C6124.93 1595.93 6100.58 1584 6073.99 1583.65C6024.39 1583 5983.5 1622.83 5982.85 1672.44C5982.68 1685.3 5985.34 1697.83 5990.36 1709.39C6044.42 1683.89 6095.09 1652.3 6141.45 1615.47ZM5240.59 367.079C5256.69 391.563 5284.28 407.421 5314.63 407.819C5364.24 408.469 5405.12 368.642 5405.77 319.036C5405.92 307.893 5404.01 297.108 5400.29 286.961C5343.72 307.516 5290.18 334.503 5240.59 367.079ZM5478.57 263.125C5484.19 279.832 5487.23 297.405 5487.52 315.163C5487.54 316.811 5487.58 318.46 5487.56 320.112C5487.53 322.328 5487.38 324.514 5487.27 326.713C5484.48 381.252 5456.24 429.003 5414.28 458.469C5385.77 478.492 5350.98 490.101 5313.56 489.611C5257.17 488.872 5205.76 460.191 5174.69 415.564C5128.87 453.13 5087.54 495.953 5051.39 542.979C5048.83 546.308 5046.23 549.599 5043.72 552.969C4950.35 678.58 4894.16 833.537 4891.96 1001.65C4886.39 1426.66 5227.63 1776.96 5652.65 1782.53C5719.2 1783.4 5783.91 1775.72 5845.76 1760.59C5868.97 1754.91 5891.79 1748.21 5914.14 1740.48C5914.27 1740.44 5914.41 1740.4 5914.54 1740.35C5914.52 1740.29 5914.5 1740.23 5914.47 1740.17C5905.4 1718.61 5900.76 1695.25 5901.07 1671.37C5901.51 1637.46 5911.84 1605.98 5929.22 1579.55C5960.37 1532.16 6014.27 1501.07 6075.06 1501.87C6122.57 1502.49 6166.35 1522.42 6197.62 1555.54C6199.39 1557.41 6201.13 1559.3 6202.81 1561.24C6337.24 1429.14 6423.71 1248.16 6432.81 1046.88C6372.61 1033.18 6319.98 997.291 6285.18 946.353C6213.21 978.391 6128.67 974.326 6059.64 933.255C5990.95 892.393 5946.66 820.212 5940.49 741.241C5862.12 733.012 5790.9 687.221 5751.65 617.118C5730.62 579.568 5719.8 537.088 5720.37 494.274C5720.84 458.208 5729.06 423.257 5744.39 391.287C5694.38 355.148 5659.89 301.589 5647.78 241.04C5589.62 242.135 5532.98 249.728 5478.57 263.125Z" fill="black"/>
<path d="M5232.3 850.772C5233.89 729.017 5334.24 631.255 5456 632.85C5509 633.545 5557.45 652.964 5595.14 684.705C5644.03 725.88 5674.83 787.799 5673.92 856.558C5672.33 978.313 5571.98 1076.08 5450.22 1074.48C5396.11 1073.77 5346.77 1053.53 5308.75 1020.6C5261.22 979.429 5231.41 918.419 5232.3 850.772ZM5592.14 855.487C5593.15 778.823 5531.6 715.638 5454.93 714.634C5378.27 713.629 5315.08 775.18 5314.08 851.843C5313.07 928.507 5374.63 991.692 5451.29 992.697C5527.95 993.701 5591.14 932.15 5592.14 855.487Z" fill="black"/>
</g>
<path d="M2829.39 1453.8L2828.11 859.883L2533.71 1351.4H2459.47L2165.07 867.563V1453.8H2006.35V557.803H2143.31L2499.15 1151.72L2848.59 557.803H2985.55L2986.83 1453.8H2829.39ZM3520.69 1462.76C3451.57 1462.76 3389.27 1447.83 3333.81 1417.96C3278.35 1388.1 3234.83 1346.71 3203.25 1293.8C3172.53 1240.04 3157.17 1179.46 3157.17 1112.04C3157.17 1044.63 3172.53 984.469 3203.25 931.563C3234.83 878.657 3278.35 837.269 3333.81 807.403C3389.27 777.537 3451.57 762.603 3520.69 762.603C3590.67 762.603 3653.39 777.537 3708.85 807.403C3764.31 837.269 3807.41 878.657 3838.13 931.563C3869.71 984.469 3885.49 1044.63 3885.49 1112.04C3885.49 1179.46 3869.71 1240.04 3838.13 1293.8C3807.41 1346.71 3764.31 1388.1 3708.85 1417.96C3653.39 1447.83 3590.67 1462.76 3520.69 1462.76ZM3520.69 1325.8C3579.57 1325.8 3628.21 1306.18 3666.61 1266.92C3705.01 1227.67 3724.21 1176.04 3724.21 1112.04C3724.21 1048.04 3705.01 996.417 3666.61 957.163C3628.21 917.909 3579.57 898.283 3520.69 898.283C3461.81 898.283 3413.17 917.909 3374.77 957.163C3337.23 996.417 3318.45 1048.04 3318.45 1112.04C3318.45 1176.04 3337.23 1227.67 3374.77 1266.92C3413.17 1306.18 3461.81 1325.8 3520.69 1325.8ZM4707.93 504.043V1453.8H4554.33V1365.48C4527.87 1397.91 4495.03 1422.23 4455.77 1438.44C4417.37 1454.66 4374.71 1462.76 4327.77 1462.76C4262.07 1462.76 4202.75 1448.26 4149.85 1419.24C4097.79 1390.23 4056.83 1349.27 4026.97 1296.36C3997.11 1242.6 3982.17 1181.16 3982.17 1112.04C3982.17 1042.92 3997.11 981.909 4026.97 929.003C4056.83 876.097 4097.79 835.137 4149.85 806.123C4202.75 777.109 4262.07 762.603 4327.77 762.603C4372.99 762.603 4414.39 770.283 4451.93 785.643C4489.47 801.003 4521.47 824.043 4547.93 854.763V504.043H4707.93ZM4346.97 1325.8C4385.37 1325.8 4419.93 1317.27 4450.65 1300.2C4481.37 1282.28 4505.69 1257.11 4523.61 1224.68C4541.53 1192.26 4550.49 1154.71 4550.49 1112.04C4550.49 1069.38 4541.53 1031.83 4523.61 999.403C4505.69 966.977 4481.37 942.229 4450.65 925.163C4419.93 907.243 4385.37 898.283 4346.97 898.283C4308.57 898.283 4274.01 907.243 4243.29 925.163C4212.57 942.229 4188.25 966.977 4170.33 999.403C4152.41 1031.83 4143.45 1069.38 4143.45 1112.04C4143.45 1154.71 4152.41 1192.26 4170.33 1224.68C4188.25 1257.11 4212.57 1282.28 4243.29 1300.2C4274.01 1317.27 4308.57 1325.8 4346.97 1325.8ZM5128.45 1462.76C5072.97 1462.76 5018.79 1455.51 4965.89 1441C4912.97 1426.5 4870.73 1408.15 4839.17 1385.96L4900.61 1264.36C4931.33 1284.84 4968.01 1301.48 5010.69 1314.28C5054.21 1326.23 5096.87 1332.2 5138.69 1332.2C5234.25 1332.2 5282.05 1307.03 5282.05 1256.68C5282.05 1232.79 5269.67 1216.15 5244.93 1206.76C5221.03 1197.38 5182.21 1188.42 5128.45 1179.88C5072.13 1171.35 5026.05 1161.54 4990.21 1150.44C4955.21 1139.35 4924.49 1120.15 4898.05 1092.84C4872.45 1064.68 4859.65 1025.86 4859.65 976.363C4859.65 911.509 4886.53 859.883 4940.29 821.483C4994.89 782.229 5068.29 762.603 5160.45 762.603C5207.37 762.603 5254.31 768.149 5301.25 779.243C5348.17 789.483 5386.57 803.563 5416.45 821.483L5355.01 943.083C5296.97 908.949 5231.69 891.883 5159.17 891.883C5112.23 891.883 5076.39 899.137 5051.65 913.643C5027.75 927.297 5015.81 945.643 5015.81 968.683C5015.81 994.283 5028.61 1012.63 5054.21 1023.72C5080.65 1033.96 5121.19 1043.78 5175.81 1053.16C5230.41 1061.7 5275.21 1071.51 5310.21 1082.6C5345.19 1093.7 5375.05 1112.47 5399.81 1138.92C5425.41 1165.38 5438.21 1202.92 5438.21 1251.56C5438.21 1315.56 5410.47 1366.76 5355.01 1405.16C5299.53 1443.56 5224.01 1462.76 5128.45 1462.76Z" fill="url(#paint0_linear)"/>
<path d="M846.025 5.35898C858.401 -1.78634 873.649 -1.78632 886.025 5.35898L1712.05 482.264C1724.43 489.41 1732.05 502.616 1732.05 516.906V1470.72C1732.05 1485.01 1724.43 1498.21 1712.05 1505.36L886.025 1982.27C873.649 1989.41 858.401 1989.41 846.025 1982.27L20 1505.36C7.624 1498.21 0 1485.01 0 1470.72V516.906C0 502.616 7.624 489.41 20 482.264L846.025 5.35898Z" fill="url(#paint1_linear)"/>
<g filter="url(#filter0_d)">
<path d="M822.666 904.692C948.96 904.692 1042.4 929.438 1102.99 978.932C1163.57 1027.57 1193.87 1094.13 1193.87 1178.61C1193.87 1232.37 1180.64 1281.01 1154.19 1324.53C1127.73 1368.05 1088.05 1402.61 1035.15 1428.21C982.24 1453.81 916.96 1466.61 839.306 1466.61C775.306 1466.61 713.44 1457.65 653.706 1439.73C593.972 1420.96 543.626 1395.36 502.666 1362.93L573.066 1233.65C606.346 1260.96 646.026 1282.72 692.106 1298.93C739.04 1314.29 787.252 1321.97 836.746 1321.97C895.626 1321.97 941.706 1310.03 974.986 1286.13C1009.12 1261.39 1026.19 1227.68 1026.19 1185.01C1026.19 1138.93 1007.84 1104.37 971.146 1081.33C935.306 1057.44 873.44 1045.49 785.546 1045.49H569.226L615.306 557.812H1141.39V697.332H756.106L736.906 904.692H822.666Z" fill="white"/>
</g>
<defs>
<filter id="filter0_d" x="422.666" y="517.812" width="851.2" height="1068.8" filterUnits="userSpaceOnUse" color-interpolation-filters="sRGB">
<feFlood flood-opacity="0" result="BackgroundImageFix"/>
<feColorMatrix in="SourceAlpha" type="matrix" values="0 0 0 0 0 0 0 0 0 0 0 0 0 0 0 0 0 0 127 0"/>
<feOffset dy="40"/>
<feGaussianBlur stdDeviation="40"/>
<feColorMatrix type="matrix" values="0 0 0 0 0 0 0 0 0 0 0 0 0 0 0 0 0 0 0.25 0"/>
<feBlend mode="normal" in2="BackgroundImageFix" result="effect1_dropShadow"/>
<feBlend mode="normal" in="SourceGraphic" in2="effect1_dropShadow" result="shape"/>
</filter>
<linearGradient id="paint0_linear" x1="3686.03" y1="213.803" x2="3686.03" y2="1773.8" gradientUnits="userSpaceOnUse">
<stop stop-color="#F27121"/>
<stop offset="1" stop-color="#E94057"/>
</linearGradient>
<linearGradient id="paint1_linear" x1="866.025" y1="-6.18802" x2="866.025" y2="1993.81" gradientUnits="userSpaceOnUse">
<stop stop-color="#E57C0B"/>
<stop offset="1" stop-color="#E94057"/>
</linearGradient>
</defs>
</svg>
