<svg width="9024" height="1988" viewBox="0 0 9024 1988" fill="none" xmlns="http://www.w3.org/2000/svg">
<path d="M8185.12 426.212C8169.9 457.942 8161.75 492.628 8161.27 528.42C8160.71 570.915 8171.45 613.071 8192.32 650.341C8231.28 719.913 8301.95 765.361 8379.73 773.529C8385.86 851.902 8429.81 923.539 8497.98 964.096C8566.49 1004.86 8650.39 1008.89 8721.82 977.098C8756.36 1027.66 8808.59 1063.27 8868.33 1076.87C8860.63 1247.31 8796.99 1403.05 8695.62 1526.55C8664.35 1493.43 8620.56 1473.5 8573.06 1472.87C8512.26 1472.08 8458.36 1503.16 8427.21 1550.55C8409.84 1576.98 8399.5 1608.46 8399.06 1642.37C8398.75 1666.25 8403.39 1689.61 8412.47 1711.17C8412.35 1711.28 8412.25 1711.38 8412.13 1711.49C8389.79 1719.22 8366.97 1725.92 8343.75 1731.6C8281.91 1746.72 8217.21 1754.4 8150.65 1753.53C7725.63 1747.96 7384.39 1397.66 7389.95 972.644C7392.16 804.531 7448.35 649.574 7541.72 523.963C7544.15 521.32 7546.72 517.922 7549.38 513.973C7585.53 466.943 7626.87 424.124 7672.69 386.558C7703.75 431.185 7755.17 459.866 7811.56 460.605C7848.98 461.095 7883.77 449.486 7912.28 429.463C7954.23 399.997 7982.47 352.246 7985.27 297.707C7985.42 295.57 7985.53 293.388 7985.56 291.106C7985.58 289.454 7985.54 287.805 7985.51 286.157C8019.43 280.855 8054.05 277.763 8089.24 277.095C8101.26 337.189 8135.49 390.344 8185.12 426.212ZM7639.9 1286.99C7639.2 1340.53 7663.21 1388.74 7701.32 1420.77C7730.94 1446.58 7769.46 1462.46 7811.73 1463.02C7906.43 1464.26 7984.48 1388.22 7985.72 1293.52C7986.42 1239.98 7962.41 1191.77 7924.31 1159.75C7894.69 1133.94 7856.16 1118.05 7813.9 1117.5C7719.2 1116.26 7641.14 1192.29 7639.9 1286.99ZM8259.6 1181.58C8258.9 1235.12 8282.91 1283.33 8321.02 1315.36C8350.64 1341.16 8389.16 1357.05 8431.42 1357.61C8526.13 1358.85 8604.18 1282.81 8605.42 1188.11C8606.12 1134.57 8582.11 1086.36 8544 1054.34C8514.38 1028.53 8475.86 1012.64 8433.6 1012.09C8338.9 1010.85 8260.84 1086.88 8259.6 1181.58ZM7727.97 819.744C7727.07 888.5 7757.86 950.419 7806.76 991.598C7844.78 1024.52 7894.12 1044.77 7948.22 1045.48C8069.98 1047.07 8170.34 949.312 8171.93 827.557C8172.83 758.802 8142.04 696.883 8093.14 655.704C8055.13 622.777 8005.78 602.532 7951.68 601.823C7829.92 600.228 7729.56 697.99 7727.97 819.744Z" fill="#D4B783"/>
<path d="M8343.72 1184.68C8344.37 1135.08 8385.25 1095.25 8434.86 1095.9C8484.46 1096.55 8524.29 1137.43 8523.64 1187.04C8522.99 1236.65 8482.11 1276.47 8432.5 1275.82C8382.89 1275.17 8343.07 1234.28 8343.72 1184.68Z" fill="#89634A"/>
<path d="M7724.02 1290.09C7724.67 1240.48 7765.55 1200.65 7815.16 1201.3C7864.76 1201.95 7904.59 1242.84 7903.94 1292.44C7903.29 1342.05 7862.4 1381.88 7812.8 1381.23C7763.19 1380.58 7723.37 1339.69 7724.02 1290.09Z" fill="#89634A"/>
<path d="M8572 1554.65C8598.59 1555 8622.93 1566.93 8639.45 1586.47C8593.09 1623.3 8542.42 1654.89 8488.36 1680.39C8483.34 1668.83 8480.68 1656.29 8480.85 1643.43C8481.5 1593.83 8522.39 1554 8572 1554.65Z" fill="#89634A"/>
<path d="M7812.64 378.821C7782.28 378.424 7754.7 362.562 7738.6 338.081C7788.18 305.505 7841.72 278.518 7898.29 257.963C7902.02 268.11 7903.92 278.9 7903.78 290.038C7903.13 339.64 7862.24 379.471 7812.64 378.821Z" fill="#89634A"/>
<path d="M7812.08 822.843C7813.09 746.179 7876.28 684.628 7952.94 685.633C8029.6 686.637 8091.15 749.822 8090.15 826.486C8089.14 903.15 8025.96 964.7 7949.29 963.696C7872.63 962.691 7811.08 899.506 7812.08 822.843Z" fill="#89634A"/>
<path d="M8544.01 1054.34C8514.71 1029.72 8477.09 1014.65 8435.93 1014.12C8341.23 1012.87 8263.17 1088.91 8261.93 1183.61C8261.25 1236.04 8284.27 1283.34 8321.02 1315.36C8282.91 1283.33 8258.9 1235.12 8259.6 1181.58C8260.84 1086.88 8338.9 1010.85 8433.6 1012.09C8475.86 1012.64 8514.39 1028.53 8544.01 1054.34Z" fill="#89634A"/>
<path d="M7816.23 1119.52C7721.52 1118.28 7643.47 1194.32 7642.23 1289.02C7641.54 1341.45 7664.57 1388.75 7701.32 1420.77C7663.21 1388.74 7639.2 1340.53 7639.9 1286.99C7641.14 1192.29 7719.2 1116.26 7813.9 1117.5C7856.17 1118.05 7894.68 1133.94 7924.3 1159.74C7895.01 1135.13 7857.39 1120.06 7816.23 1119.52Z" fill="#89634A"/>
<path d="M7954 603.85C7832.25 602.255 7731.89 700.017 7730.3 821.772C7729.41 889.419 7759.22 950.429 7806.75 991.599C7757.86 950.424 7727.06 888.504 7727.96 819.745C7729.56 697.99 7829.91 600.228 7951.67 601.824C8005.78 602.533 8055.12 622.778 8093.14 655.704C8055.45 623.964 8007.01 604.545 7954 603.85Z" fill="#89634A"/>
<path d="M8261.93 1183.61C8263.17 1088.91 8341.23 1012.87 8435.93 1014.12C8477.09 1014.65 8514.71 1029.72 8544.01 1054.34C8582.11 1086.36 8606.12 1134.57 8605.42 1188.11C8604.18 1282.81 8526.13 1358.85 8431.43 1357.61C8389.16 1357.05 8350.64 1341.16 8321.02 1315.36C8284.27 1283.34 8261.25 1236.04 8261.93 1183.61ZM8523.64 1187.04C8524.29 1137.43 8484.46 1096.55 8434.86 1095.9C8385.25 1095.25 8344.37 1135.08 8343.72 1184.68C8343.07 1234.29 8382.89 1275.17 8432.5 1275.82C8482.11 1276.47 8522.99 1236.64 8523.64 1187.04Z" fill="black"/>
<path d="M7642.23 1289.02C7643.47 1194.32 7721.53 1118.28 7816.23 1119.52C7857.39 1120.06 7895.01 1135.12 7924.31 1159.74C7962.41 1191.77 7986.42 1239.98 7985.72 1293.52C7984.48 1388.22 7906.43 1464.25 7811.73 1463.01C7769.46 1462.46 7730.94 1446.57 7701.32 1420.77C7664.57 1388.75 7641.54 1341.45 7642.23 1289.02ZM7903.94 1292.45C7904.59 1242.84 7864.76 1201.96 7815.15 1201.31C7765.55 1200.66 7724.66 1240.48 7724.01 1290.09C7723.36 1339.7 7763.19 1380.58 7812.8 1381.23C7862.4 1381.88 7903.29 1342.05 7903.94 1292.45Z" fill="black"/>
<path d="M8179.68 130.36L8183.08 130.457C8204.66 131.002 8222.1 148.236 8222.91 169.808C8225.18 230.675 8260.82 284.85 8315.91 311.187C8326.86 316.422 8334.92 326.253 8337.91 338.014C8340.9 349.779 8338.51 362.262 8331.38 372.091C8311.68 399.259 8300.59 432.737 8300.15 466.346C8299.77 494.823 8306.98 523.109 8321.01 548.15C8352.06 603.599 8413.11 636.234 8476.56 631.291C8488.66 630.349 8500.55 634.832 8509.02 643.527C8517.49 652.227 8521.65 664.277 8520.41 676.301C8519.9 681.182 8519.61 686.152 8519.54 691.071C8518.78 749.431 8549.4 804.187 8599.45 833.967C8654.07 866.461 8723.26 864.193 8775.73 828.195C8785.74 821.328 8798.28 819.26 8809.97 822.558C8821.65 825.852 8831.27 834.166 8836.21 845.249C8861.09 900.984 8914.29 938.024 8975.04 941.908C8996.57 943.286 9013.33 961.153 9013.33 982.727L9013.34 986.065C9013.35 988.674 9013.35 991.292 9013.32 993.913C9007.16 1464.02 8619.68 1841.47 8149.57 1835.31C7679.46 1829.15 7302.01 1441.68 7308.17 971.57C7314.33 501.46 7701.81 124.012 8171.92 130.172C8174.51 130.206 8177.1 130.281 8179.68 130.36ZM8639.45 1586.47C8622.93 1566.93 8598.58 1555 8571.99 1554.65C8522.39 1554 8481.5 1593.83 8480.85 1643.44C8480.68 1656.3 8483.34 1668.83 8488.36 1680.39C8542.42 1654.89 8593.09 1623.3 8639.45 1586.47ZM7738.59 338.079C7754.69 362.563 7782.28 378.421 7812.63 378.819C7862.24 379.469 7903.12 339.642 7903.77 290.036C7903.92 278.893 7902.01 268.108 7898.29 257.961C7841.72 278.516 7788.18 305.503 7738.59 338.079ZM7976.57 234.125C7982.19 250.832 7985.23 268.405 7985.52 286.163C7985.54 287.811 7985.58 289.46 7985.56 291.112C7985.53 293.328 7985.38 295.514 7985.27 297.713C7982.48 352.252 7954.24 400.003 7912.28 429.469C7883.77 449.492 7848.98 461.101 7811.56 460.611C7755.17 459.872 7703.76 431.191 7672.69 386.564C7626.87 424.13 7585.54 466.953 7549.39 513.979C7546.83 517.308 7544.23 520.599 7541.72 523.969C7448.35 649.58 7392.16 804.537 7389.96 972.65C7384.39 1397.66 7725.63 1747.96 8150.65 1753.53C8217.2 1754.4 8281.91 1746.72 8343.76 1731.59C8366.97 1725.91 8389.79 1719.21 8412.14 1711.48C8412.27 1711.44 8412.41 1711.4 8412.54 1711.35C8412.52 1711.29 8412.5 1711.23 8412.47 1711.17C8403.4 1689.61 8398.76 1666.25 8399.07 1642.37C8399.51 1608.46 8409.84 1576.98 8427.22 1550.55C8458.37 1503.16 8512.27 1472.07 8573.06 1472.87C8620.57 1473.49 8664.35 1493.42 8695.62 1526.54C8697.39 1528.41 8699.13 1530.3 8700.81 1532.24C8835.24 1400.14 8921.71 1219.16 8930.81 1017.88C8870.61 1004.18 8817.98 968.291 8783.18 917.353C8711.21 949.391 8626.67 945.326 8557.64 904.255C8488.95 863.393 8444.66 791.212 8438.49 712.241C8360.12 704.012 8288.9 658.221 8249.65 588.118C8228.62 550.568 8217.8 508.088 8218.37 465.274C8218.84 429.208 8227.06 394.257 8242.39 362.287C8192.38 326.148 8157.89 272.589 8145.78 212.04C8087.62 213.135 8030.98 220.728 7976.57 234.125Z" fill="black"/>
<path d="M7730.3 821.772C7731.89 700.017 7832.24 602.255 7954 603.85C8007 604.545 8055.45 623.964 8093.14 655.705C8142.03 696.88 8172.83 758.799 8171.92 827.558C8170.33 949.313 8069.98 1047.08 7948.22 1045.48C7894.11 1044.77 7844.77 1024.53 7806.75 991.599C7759.22 950.429 7729.41 889.419 7730.3 821.772ZM8090.14 826.487C8091.15 749.823 8029.6 686.638 7952.93 685.634C7876.27 684.629 7813.08 746.18 7812.08 822.843C7811.07 899.507 7872.63 962.692 7949.29 963.697C8025.95 964.701 8089.14 903.15 8090.14 826.487Z" fill="black"/>
<path d="M2829.39 1453.8L2828.11 859.883L2533.71 1351.4H2459.47L2165.07 867.563V1453.8H2006.35V557.803H2143.31L2499.15 1151.72L2848.59 557.803H2985.55L2986.83 1453.8H2829.39ZM3520.69 1462.76C3451.57 1462.76 3389.27 1447.83 3333.81 1417.96C3278.35 1388.1 3234.83 1346.71 3203.25 1293.8C3172.53 1240.04 3157.17 1179.46 3157.17 1112.04C3157.17 1044.63 3172.53 984.469 3203.25 931.563C3234.83 878.657 3278.35 837.269 3333.81 807.403C3389.27 777.537 3451.57 762.603 3520.69 762.603C3590.67 762.603 3653.39 777.537 3708.85 807.403C3764.31 837.269 3807.41 878.657 3838.13 931.563C3869.71 984.469 3885.49 1044.63 3885.49 1112.04C3885.49 1179.46 3869.71 1240.04 3838.13 1293.8C3807.41 1346.71 3764.31 1388.1 3708.85 1417.96C3653.39 1447.83 3590.67 1462.76 3520.69 1462.76ZM3520.69 1325.8C3579.57 1325.8 3628.21 1306.18 3666.61 1266.92C3705.01 1227.67 3724.21 1176.04 3724.21 1112.04C3724.21 1048.04 3705.01 996.417 3666.61 957.163C3628.21 917.909 3579.57 898.283 3520.69 898.283C3461.81 898.283 3413.17 917.909 3374.77 957.163C3337.23 996.417 3318.45 1048.04 3318.45 1112.04C3318.45 1176.04 3337.23 1227.67 3374.77 1266.92C3413.17 1306.18 3461.81 1325.8 3520.69 1325.8ZM4707.93 504.043V1453.8H4554.33V1365.48C4527.87 1397.91 4495.03 1422.23 4455.77 1438.44C4417.37 1454.66 4374.71 1462.76 4327.77 1462.76C4262.07 1462.76 4202.75 1448.26 4149.85 1419.24C4097.79 1390.23 4056.83 1349.27 4026.97 1296.36C3997.11 1242.6 3982.17 1181.16 3982.17 1112.04C3982.17 1042.92 3997.11 981.909 4026.97 929.003C4056.83 876.097 4097.79 835.137 4149.85 806.123C4202.75 777.109 4262.07 762.603 4327.77 762.603C4372.99 762.603 4414.39 770.283 4451.93 785.643C4489.47 801.003 4521.47 824.043 4547.93 854.763V504.043H4707.93ZM4346.97 1325.8C4385.37 1325.8 4419.93 1317.27 4450.65 1300.2C4481.37 1282.28 4505.69 1257.11 4523.61 1224.68C4541.53 1192.26 4550.49 1154.71 4550.49 1112.04C4550.49 1069.38 4541.53 1031.83 4523.61 999.403C4505.69 966.977 4481.37 942.229 4450.65 925.163C4419.93 907.243 4385.37 898.283 4346.97 898.283C4308.57 898.283 4274.01 907.243 4243.29 925.163C4212.57 942.229 4188.25 966.977 4170.33 999.403C4152.41 1031.83 4143.45 1069.38 4143.45 1112.04C4143.45 1154.71 4152.41 1192.26 4170.33 1224.68C4188.25 1257.11 4212.57 1282.28 4243.29 1300.2C4274.01 1317.27 4308.57 1325.8 4346.97 1325.8ZM5128.45 1462.76C5072.97 1462.76 5018.79 1455.51 4965.89 1441C4912.97 1426.5 4870.73 1408.15 4839.17 1385.96L4900.61 1264.36C4931.33 1284.84 4968.01 1301.48 5010.69 1314.28C5054.21 1326.23 5096.87 1332.2 5138.69 1332.2C5234.25 1332.2 5282.05 1307.03 5282.05 1256.68C5282.05 1232.79 5269.67 1216.15 5244.93 1206.76C5221.03 1197.38 5182.21 1188.42 5128.45 1179.88C5072.13 1171.35 5026.05 1161.54 4990.21 1150.44C4955.21 1139.35 4924.49 1120.15 4898.05 1092.84C4872.45 1064.68 4859.65 1025.86 4859.65 976.363C4859.65 911.509 4886.53 859.883 4940.29 821.483C4994.89 782.229 5068.29 762.603 5160.45 762.603C5207.37 762.603 5254.31 768.149 5301.25 779.243C5348.17 789.483 5386.57 803.563 5416.45 821.483L5355.01 943.083C5296.97 908.949 5231.69 891.883 5159.17 891.883C5112.23 891.883 5076.39 899.137 5051.65 913.643C5027.75 927.297 5015.81 945.643 5015.81 968.683C5015.81 994.283 5028.61 1012.63 5054.21 1023.72C5080.65 1033.96 5121.19 1043.78 5175.81 1053.16C5230.41 1061.7 5275.21 1071.51 5310.21 1082.6C5345.19 1093.7 5375.05 1112.47 5399.81 1138.92C5425.41 1165.38 5438.21 1202.92 5438.21 1251.56C5438.21 1315.56 5410.47 1366.76 5355.01 1405.16C5299.53 1443.56 5224.01 1462.76 5128.45 1462.76Z" fill="url(#paint0_linear)"/>
<path d="M846.025 5.35898C858.401 -1.78634 873.649 -1.78632 886.025 5.35898L1712.05 482.264C1724.43 489.41 1732.05 502.616 1732.05 516.906V1470.72C1732.05 1485.01 1724.43 1498.21 1712.05 1505.36L886.025 1982.27C873.649 1989.41 858.401 1989.41 846.025 1982.27L20 1505.36C7.624 1498.21 0 1485.01 0 1470.72V516.906C0 502.616 7.624 489.41 20 482.264L846.025 5.35898Z" fill="url(#paint1_linear)"/>
<g filter="url(#filter0_d)">
<path d="M822.666 904.692C948.96 904.692 1042.4 929.438 1102.99 978.932C1163.57 1027.57 1193.87 1094.13 1193.87 1178.61C1193.87 1232.37 1180.64 1281.01 1154.19 1324.53C1127.73 1368.05 1088.05 1402.61 1035.15 1428.21C982.24 1453.81 916.96 1466.61 839.306 1466.61C775.306 1466.61 713.44 1457.65 653.706 1439.73C593.972 1420.96 543.626 1395.36 502.666 1362.93L573.066 1233.65C606.346 1260.96 646.026 1282.72 692.106 1298.93C739.04 1314.29 787.252 1321.97 836.746 1321.97C895.626 1321.97 941.706 1310.03 974.986 1286.13C1009.12 1261.39 1026.19 1227.68 1026.19 1185.01C1026.19 1138.93 1007.84 1104.37 971.146 1081.33C935.306 1057.44 873.44 1045.49 785.546 1045.49H569.226L615.306 557.812H1141.39V697.332H756.106L736.906 904.692H822.666Z" fill="white"/>
</g>
<g opacity="0.5">
<path d="M6025.26 414.721C6163.23 414.721 6284.21 491.132 6326.66 607.873C6330.91 618.485 6343.64 624.853 6358.5 622.731C6371.24 626.976 6386.09 620.608 6390.34 607.873C6432.79 493.255 6553.77 414.721 6691.74 414.721C6865.79 414.721 7008 539.951 7008 692.775C7008 747.961 6988.9 803.147 6952.81 849.843C6952.81 849.843 6952.81 849.843 6952.81 851.966L6950.69 854.088L6358.5 1552.41L5766.31 851.966L5764.19 849.843C5728.1 803.147 5709 750.083 5709 692.775C5709 539.951 5851.21 414.721 6025.26 414.721Z" fill="#F15249"/>
<path d="M6358.5 620.606C6371.24 624.851 6386.09 618.483 6390.34 605.748C6432.79 491.13 6553.77 412.596 6691.74 412.596C6865.79 412.596 7008 537.826 7008 690.65C7008 745.836 6988.9 801.022 6952.81 847.718C6952.81 847.718 6952.81 847.718 6952.81 849.841L6950.69 851.963L6358.5 1552.4" fill="#F15249"/>
<path d="M5808.76 750.079C5791.78 750.079 5776.92 735.221 5776.92 718.241C5776.92 586.643 5895.78 480.516 6042.24 480.516C6059.22 480.516 6074.08 495.373 6074.08 512.354C6074.08 529.334 6059.22 544.192 6042.24 544.192C5931.87 544.192 5840.6 622.726 5840.6 718.241C5840.6 737.344 5825.74 750.079 5808.76 750.079Z" fill="#F99595"/>
</g>
<defs>
<filter id="filter0_d" x="422.666" y="517.812" width="851.2" height="1068.8" filterUnits="userSpaceOnUse" color-interpolation-filters="sRGB">
<feFlood flood-opacity="0" result="BackgroundImageFix"/>
<feColorMatrix in="SourceAlpha" type="matrix" values="0 0 0 0 0 0 0 0 0 0 0 0 0 0 0 0 0 0 127 0"/>
<feOffset dy="40"/>
<feGaussianBlur stdDeviation="40"/>
<feColorMatrix type="matrix" values="0 0 0 0 0 0 0 0 0 0 0 0 0 0 0 0 0 0 0.25 0"/>
<feBlend mode="normal" in2="BackgroundImageFix" result="effect1_dropShadow"/>
<feBlend mode="normal" in="SourceGraphic" in2="effect1_dropShadow" result="shape"/>
</filter>
<linearGradient id="paint0_linear" x1="3686.03" y1="213.803" x2="3686.03" y2="1773.8" gradientUnits="userSpaceOnUse">
<stop stop-color="#F27121"/>
<stop offset="1" stop-color="#E94057"/>
</linearGradient>
<linearGradient id="paint1_linear" x1="866.025" y1="-6.18802" x2="866.025" y2="1993.81" gradientUnits="userSpaceOnUse">
<stop stop-color="#E57C0B"/>
<stop offset="1" stop-color="#E94057"/>
</linearGradient>
</defs>
</svg>
