<svg width="7404" height="1988" viewBox="0 0 7404 1988" fill="none" xmlns="http://www.w3.org/2000/svg">
<path d="M2829.39 1453.8L2828.11 859.883L2533.71 1351.4H2459.47L2165.07 867.563V1453.8H2006.35V557.803H2143.31L2499.15 1151.72L2848.59 557.803H2985.55L2986.83 1453.8H2829.39ZM3520.69 1462.76C3451.57 1462.76 3389.27 1447.83 3333.81 1417.96C3278.35 1388.1 3234.83 1346.71 3203.25 1293.8C3172.53 1240.04 3157.17 1179.46 3157.17 1112.04C3157.17 1044.63 3172.53 984.469 3203.25 931.563C3234.83 878.657 3278.35 837.269 3333.81 807.403C3389.27 777.537 3451.57 762.603 3520.69 762.603C3590.67 762.603 3653.39 777.537 3708.85 807.403C3764.31 837.269 3807.41 878.657 3838.13 931.563C3869.71 984.469 3885.49 1044.63 3885.49 1112.04C3885.49 1179.46 3869.71 1240.04 3838.13 1293.8C3807.41 1346.71 3764.31 1388.1 3708.85 1417.96C3653.39 1447.83 3590.67 1462.76 3520.69 1462.76ZM3520.69 1325.8C3579.57 1325.8 3628.21 1306.18 3666.61 1266.92C3705.01 1227.67 3724.21 1176.04 3724.21 1112.04C3724.21 1048.04 3705.01 996.417 3666.61 957.163C3628.21 917.909 3579.57 898.283 3520.69 898.283C3461.81 898.283 3413.17 917.909 3374.77 957.163C3337.23 996.417 3318.45 1048.04 3318.45 1112.04C3318.45 1176.04 3337.23 1227.67 3374.77 1266.92C3413.17 1306.18 3461.81 1325.8 3520.69 1325.8ZM4707.93 504.043V1453.8H4554.33V1365.48C4527.87 1397.91 4495.03 1422.23 4455.77 1438.44C4417.37 1454.66 4374.71 1462.76 4327.77 1462.76C4262.07 1462.76 4202.75 1448.26 4149.85 1419.24C4097.79 1390.23 4056.83 1349.27 4026.97 1296.36C3997.11 1242.6 3982.17 1181.16 3982.17 1112.04C3982.17 1042.92 3997.11 981.909 4026.97 929.003C4056.83 876.097 4097.79 835.137 4149.85 806.123C4202.75 777.109 4262.07 762.603 4327.77 762.603C4372.99 762.603 4414.39 770.283 4451.93 785.643C4489.47 801.003 4521.47 824.043 4547.93 854.763V504.043H4707.93ZM4346.97 1325.8C4385.37 1325.8 4419.93 1317.27 4450.65 1300.2C4481.37 1282.28 4505.69 1257.11 4523.61 1224.68C4541.53 1192.26 4550.49 1154.71 4550.49 1112.04C4550.49 1069.38 4541.53 1031.83 4523.61 999.403C4505.69 966.977 4481.37 942.229 4450.65 925.163C4419.93 907.243 4385.37 898.283 4346.97 898.283C4308.57 898.283 4274.01 907.243 4243.29 925.163C4212.57 942.229 4188.25 966.977 4170.33 999.403C4152.41 1031.83 4143.45 1069.38 4143.45 1112.04C4143.45 1154.71 4152.41 1192.26 4170.33 1224.68C4188.25 1257.11 4212.57 1282.28 4243.29 1300.2C4274.01 1317.27 4308.57 1325.8 4346.97 1325.8ZM5128.45 1462.76C5072.97 1462.76 5018.79 1455.51 4965.89 1441C4912.97 1426.5 4870.73 1408.15 4839.17 1385.96L4900.61 1264.36C4931.33 1284.84 4968.01 1301.48 5010.69 1314.28C5054.21 1326.23 5096.87 1332.2 5138.69 1332.2C5234.25 1332.2 5282.05 1307.03 5282.05 1256.68C5282.05 1232.79 5269.67 1216.15 5244.93 1206.76C5221.03 1197.38 5182.21 1188.42 5128.45 1179.88C5072.13 1171.35 5026.05 1161.54 4990.21 1150.44C4955.21 1139.35 4924.49 1120.15 4898.05 1092.84C4872.45 1064.68 4859.65 1025.86 4859.65 976.363C4859.65 911.509 4886.53 859.883 4940.29 821.483C4994.89 782.229 5068.29 762.603 5160.45 762.603C5207.37 762.603 5254.31 768.149 5301.25 779.243C5348.17 789.483 5386.57 803.563 5416.45 821.483L5355.01 943.083C5296.97 908.949 5231.69 891.883 5159.17 891.883C5112.23 891.883 5076.39 899.137 5051.65 913.643C5027.75 927.297 5015.81 945.643 5015.81 968.683C5015.81 994.283 5028.61 1012.63 5054.21 1023.72C5080.65 1033.96 5121.19 1043.78 5175.81 1053.16C5230.41 1061.7 5275.21 1071.51 5310.21 1082.6C5345.19 1093.7 5375.05 1112.47 5399.81 1138.92C5425.41 1165.38 5438.21 1202.92 5438.21 1251.56C5438.21 1315.56 5410.47 1366.76 5355.01 1405.16C5299.53 1443.56 5224.01 1462.76 5128.45 1462.76Z" fill="url(#paint0_linear)"/>
<path d="M846.025 5.35898C858.401 -1.78634 873.649 -1.78632 886.025 5.35898L1712.05 482.264C1724.43 489.41 1732.05 502.616 1732.05 516.906V1470.72C1732.05 1485.01 1724.43 1498.21 1712.05 1505.36L886.025 1982.27C873.649 1989.41 858.401 1989.41 846.025 1982.27L20 1505.36C7.624 1498.21 0 1485.01 0 1470.72V516.906C0 502.616 7.624 489.41 20 482.264L846.025 5.35898Z" fill="url(#paint1_linear)"/>
<g filter="url(#filter0_d)">
<path d="M822.666 904.692C948.96 904.692 1042.4 929.438 1102.99 978.932C1163.57 1027.57 1193.87 1094.13 1193.87 1178.61C1193.87 1232.37 1180.64 1281.01 1154.19 1324.53C1127.73 1368.05 1088.05 1402.61 1035.15 1428.21C982.24 1453.81 916.96 1466.61 839.306 1466.61C775.306 1466.61 713.44 1457.65 653.706 1439.73C593.972 1420.96 543.626 1395.36 502.666 1362.93L573.066 1233.65C606.346 1260.96 646.026 1282.72 692.106 1298.93C739.04 1314.29 787.252 1321.97 836.746 1321.97C895.626 1321.97 941.706 1310.03 974.986 1286.13C1009.12 1261.39 1026.19 1227.68 1026.19 1185.01C1026.19 1138.93 1007.84 1104.37 971.146 1081.33C935.306 1057.44 873.44 1045.49 785.546 1045.49H569.226L615.306 557.812H1141.39V697.332H756.106L736.906 904.692H822.666Z" fill="white"/>
</g>
<path d="M2829.39 1453.8L2828.11 859.883L2533.71 1351.4H2459.47L2165.07 867.563V1453.8H2006.35V557.803H2143.31L2499.15 1151.72L2848.59 557.803H2985.55L2986.83 1453.8H2829.39ZM3520.69 1462.76C3451.57 1462.76 3389.27 1447.83 3333.81 1417.96C3278.35 1388.1 3234.83 1346.71 3203.25 1293.8C3172.53 1240.04 3157.17 1179.46 3157.17 1112.04C3157.17 1044.63 3172.53 984.469 3203.25 931.563C3234.83 878.657 3278.35 837.269 3333.81 807.403C3389.27 777.537 3451.57 762.603 3520.69 762.603C3590.67 762.603 3653.39 777.537 3708.85 807.403C3764.31 837.269 3807.41 878.657 3838.13 931.563C3869.71 984.469 3885.49 1044.63 3885.49 1112.04C3885.49 1179.46 3869.71 1240.04 3838.13 1293.8C3807.41 1346.71 3764.31 1388.1 3708.85 1417.96C3653.39 1447.83 3590.67 1462.76 3520.69 1462.76ZM3520.69 1325.8C3579.57 1325.8 3628.21 1306.18 3666.61 1266.92C3705.01 1227.67 3724.21 1176.04 3724.21 1112.04C3724.21 1048.04 3705.01 996.417 3666.61 957.163C3628.21 917.909 3579.57 898.283 3520.69 898.283C3461.81 898.283 3413.17 917.909 3374.77 957.163C3337.23 996.417 3318.45 1048.04 3318.45 1112.04C3318.45 1176.04 3337.23 1227.67 3374.77 1266.92C3413.17 1306.18 3461.81 1325.8 3520.69 1325.8ZM4707.93 504.043V1453.8H4554.33V1365.48C4527.87 1397.91 4495.03 1422.23 4455.77 1438.44C4417.37 1454.66 4374.71 1462.76 4327.77 1462.76C4262.07 1462.76 4202.75 1448.26 4149.85 1419.24C4097.79 1390.23 4056.83 1349.27 4026.97 1296.36C3997.11 1242.6 3982.17 1181.16 3982.17 1112.04C3982.17 1042.92 3997.11 981.909 4026.97 929.003C4056.83 876.097 4097.79 835.137 4149.85 806.123C4202.75 777.109 4262.07 762.603 4327.77 762.603C4372.99 762.603 4414.39 770.283 4451.93 785.643C4489.47 801.003 4521.47 824.043 4547.93 854.763V504.043H4707.93ZM4346.97 1325.8C4385.37 1325.8 4419.93 1317.27 4450.65 1300.2C4481.37 1282.28 4505.69 1257.11 4523.61 1224.68C4541.53 1192.26 4550.49 1154.71 4550.49 1112.04C4550.49 1069.38 4541.53 1031.83 4523.61 999.403C4505.69 966.977 4481.37 942.229 4450.65 925.163C4419.93 907.243 4385.37 898.283 4346.97 898.283C4308.57 898.283 4274.01 907.243 4243.29 925.163C4212.57 942.229 4188.25 966.977 4170.33 999.403C4152.41 1031.83 4143.45 1069.38 4143.45 1112.04C4143.45 1154.71 4152.41 1192.26 4170.33 1224.68C4188.25 1257.11 4212.57 1282.28 4243.29 1300.2C4274.01 1317.27 4308.57 1325.8 4346.97 1325.8ZM5128.45 1462.76C5072.97 1462.76 5018.79 1455.51 4965.89 1441C4912.97 1426.5 4870.73 1408.15 4839.17 1385.96L4900.61 1264.36C4931.33 1284.84 4968.01 1301.48 5010.69 1314.28C5054.21 1326.23 5096.87 1332.2 5138.69 1332.2C5234.25 1332.2 5282.05 1307.03 5282.05 1256.68C5282.05 1232.79 5269.67 1216.15 5244.93 1206.76C5221.03 1197.38 5182.21 1188.42 5128.45 1179.88C5072.13 1171.35 5026.05 1161.54 4990.21 1150.44C4955.21 1139.35 4924.49 1120.15 4898.05 1092.84C4872.45 1064.68 4859.65 1025.86 4859.65 976.363C4859.65 911.509 4886.53 859.883 4940.29 821.483C4994.89 782.229 5068.29 762.603 5160.45 762.603C5207.37 762.603 5254.31 768.149 5301.25 779.243C5348.17 789.483 5386.57 803.563 5416.45 821.483L5355.01 943.083C5296.97 908.949 5231.69 891.883 5159.17 891.883C5112.23 891.883 5076.39 899.137 5051.65 913.643C5027.75 927.297 5015.81 945.643 5015.81 968.683C5015.81 994.283 5028.61 1012.63 5054.21 1023.72C5080.65 1033.96 5121.19 1043.78 5175.81 1053.16C5230.41 1061.7 5275.21 1071.51 5310.21 1082.6C5345.19 1093.7 5375.05 1112.47 5399.81 1138.92C5425.41 1165.38 5438.21 1202.92 5438.21 1251.56C5438.21 1315.56 5410.47 1366.76 5355.01 1405.16C5299.53 1443.56 5224.01 1462.76 5128.45 1462.76Z" fill="url(#paint2_linear)"/>
<path d="M846.025 5.35898C858.401 -1.78634 873.649 -1.78632 886.025 5.35898L1712.05 482.264C1724.43 489.41 1732.05 502.616 1732.05 516.906V1470.72C1732.05 1485.01 1724.43 1498.21 1712.05 1505.36L886.025 1982.27C873.649 1989.41 858.401 1989.41 846.025 1982.27L20 1505.36C7.624 1498.21 0 1485.01 0 1470.72V516.906C0 502.616 7.624 489.41 20 482.264L846.025 5.35898Z" fill="url(#paint3_linear)"/>
<g filter="url(#filter1_d)">
<path d="M822.666 904.692C948.96 904.692 1042.4 929.438 1102.99 978.932C1163.57 1027.57 1193.87 1094.13 1193.87 1178.61C1193.87 1232.37 1180.64 1281.01 1154.19 1324.53C1127.73 1368.05 1088.05 1402.61 1035.15 1428.21C982.24 1453.81 916.96 1466.61 839.306 1466.61C775.306 1466.61 713.44 1457.65 653.706 1439.73C593.972 1420.96 543.626 1395.36 502.666 1362.93L573.066 1233.65C606.346 1260.96 646.026 1282.72 692.106 1298.93C739.04 1314.29 787.252 1321.97 836.746 1321.97C895.626 1321.97 941.706 1310.03 974.986 1286.13C1009.12 1261.39 1026.19 1227.68 1026.19 1185.01C1026.19 1138.93 1007.84 1104.37 971.146 1081.33C935.306 1057.44 873.44 1045.49 785.546 1045.49H569.226L615.306 557.812H1141.39V697.332H756.106L736.906 904.692H822.666Z" fill="white"/>
</g>
<path d="M6625.31 430.557C6607.34 460.815 6596.15 494.642 6592.51 530.252C6588.18 572.53 6595.14 615.471 6612.63 654.443C6645.28 727.192 6711.65 778.721 6788.4 793.746C6787.56 872.353 6825 947.602 6889.3 994.036C6953.94 1040.71 7037.15 1052.16 7111.12 1026.81C7141.04 1080.23 7189.91 1120.33 7248.22 1139.17C7225.45 1308.26 7148.27 1457.75 7036.35 1571.78C7008.14 1536.03 6966.29 1512.29 6919.03 1507.46C6858.54 1501.29 6802.1 1527.47 6766.87 1571.92C6747.23 1596.71 6734.15 1627.15 6730.7 1660.88C6728.28 1684.64 6730.84 1708.33 6737.96 1730.6C6737.84 1730.7 6737.73 1730.79 6737.6 1730.89C6714.66 1736.61 6691.34 1741.26 6667.71 1744.86C6604.77 1754.45 6539.64 1756.37 6473.42 1749.61C6050.57 1706.42 5741.69 1327.27 5784.88 904.418C5801.96 737.16 5871.66 587.789 5975.78 470.94C5978.44 468.523 5981.3 465.367 5984.3 461.669C6024.48 418.025 6069.44 379.036 6118.41 345.675C6145.39 392.877 6194.07 425.999 6250.18 431.73C6287.4 435.532 6323.08 427.05 6353.25 409.631C6397.66 383.997 6430.01 338.934 6437.63 284.858C6437.96 282.742 6438.27 280.578 6438.5 278.308C6438.67 276.664 6438.78 275.019 6438.9 273.374C6473.15 271.097 6507.9 271.083 6543.02 273.535C6549.67 334.457 6579.05 390.434 6625.31 430.557ZM6006 1239.67C6000.56 1292.94 6020.21 1343.08 6055.33 1378.36C6082.55 1406.69 6119.51 1425.92 6161.56 1430.22C6255.78 1439.84 6340.26 1371.02 6349.88 1276.8C6355.33 1223.53 6335.68 1173.38 6300.56 1138.11C6273.34 1109.78 6236.38 1090.55 6194.33 1086.25C6100.11 1076.63 6015.63 1145.45 6006 1239.67ZM6632.6 1189.56C6627.16 1242.82 6646.81 1292.97 6681.93 1328.25C6709.15 1356.57 6746.11 1375.81 6788.16 1380.1C6882.38 1389.73 6966.86 1320.91 6976.48 1226.69C6981.93 1173.42 6962.28 1123.28 6927.16 1088C6899.94 1059.67 6862.98 1040.43 6820.93 1036.14C6726.71 1026.52 6642.23 1095.33 6632.6 1189.56ZM6135.11 782.055C6128.12 850.46 6153.31 914.863 6198.37 960.212C6233.32 996.376 6280.67 1020.91 6334.5 1026.41C6455.64 1038.78 6564.26 950.293 6576.63 829.158C6583.62 760.752 6558.43 696.35 6513.37 651.001C6478.42 614.837 6431.07 590.301 6377.24 584.803C6256.1 572.43 6147.48 660.92 6135.11 782.055Z" fill="white"/>
<path d="M6716.11 1200.09C6721.15 1150.74 6765.41 1114.69 6814.76 1119.73C6864.11 1124.77 6900.16 1169.02 6895.12 1218.38C6890.08 1267.73 6845.83 1303.78 6796.47 1298.74C6747.12 1293.7 6711.07 1249.44 6716.11 1200.09Z" fill="#F27121"/>
<path d="M6089.51 1250.2C6094.55 1200.85 6138.8 1164.8 6188.16 1169.84C6237.51 1174.88 6273.56 1219.13 6268.52 1268.48C6263.48 1317.84 6219.23 1353.89 6169.87 1348.84C6120.52 1343.8 6084.47 1299.55 6089.51 1250.2Z" fill="#F27121"/>
<path d="M6910.73 1588.83C6937.18 1591.53 6960.38 1605.56 6975.1 1626.49C6925.66 1659.07 6872.4 1686.05 6816.28 1706.66C6812.3 1694.71 6810.77 1681.98 6812.08 1669.19C6817.12 1619.84 6861.37 1583.79 6910.73 1588.83Z" fill="#F27121"/>
<path d="M6258.49 350.364C6228.29 347.28 6202.22 329.037 6188.35 303.227C6240.63 275.17 6296.35 253.031 6354.52 237.567C6357.33 248.004 6358.27 258.92 6357.14 270.002C6352.1 319.351 6307.85 355.405 6258.49 350.364Z" fill="#F27121"/>
<path d="M6218.62 792.59C6226.41 716.317 6294.8 660.604 6371.07 668.394C6447.34 676.185 6503.05 744.573 6495.26 820.846C6487.47 897.119 6419.09 952.832 6342.81 945.042C6266.54 937.252 6210.83 868.863 6218.62 792.59Z" fill="#F27121"/>
<path d="M6844.29 1099.12C6817.28 1072.01 6781.15 1053.67 6740.19 1049.49C6645.97 1039.87 6561.49 1108.69 6551.87 1202.91C6546.54 1255.07 6565.29 1304.23 6599.06 1339.37C6563.93 1304.1 6544.29 1253.95 6549.73 1200.68C6559.35 1106.46 6643.83 1037.64 6738.05 1047.27C6780.1 1051.56 6817.07 1070.79 6844.29 1099.12Z" fill="#F27121"/>
<path d="M6113.59 1099.6C6019.37 1089.97 5934.89 1158.8 5925.27 1253.02C5919.94 1305.18 5938.69 1354.34 5972.45 1389.48C5937.33 1354.2 5917.69 1304.06 5923.13 1250.79C5932.75 1156.57 6017.23 1087.75 6111.45 1097.37C6153.5 1101.67 6190.46 1120.9 6217.68 1149.23C6190.68 1122.12 6154.54 1103.78 6113.59 1099.6Z" fill="#F27121"/>
<path d="M6296.5 598.153C6175.36 585.781 6066.74 674.27 6054.37 795.405C6047.5 862.708 6071.79 926.119 6115.48 971.337C6070.43 925.993 6045.24 861.59 6052.23 793.18C6064.6 672.045 6173.22 583.555 6294.35 595.928C6348.19 601.427 6395.54 625.962 6430.49 662.126C6395.76 627.173 6349.23 603.54 6296.5 598.153Z" fill="#F27121"/>
<path d="M6551.87 1202.91C6561.49 1108.69 6645.98 1039.86 6740.19 1049.49C6781.15 1053.67 6817.29 1072 6844.29 1099.12C6879.41 1134.4 6899.05 1184.54 6893.61 1237.81C6883.99 1332.03 6799.51 1400.85 6705.29 1391.23C6663.24 1386.93 6626.27 1367.7 6599.06 1339.37C6565.29 1304.22 6546.54 1255.07 6551.87 1202.91ZM6812.25 1229.5C6817.29 1180.15 6781.24 1135.9 6731.88 1130.86C6682.53 1125.81 6638.28 1161.86 6633.24 1211.22C6628.2 1260.57 6664.25 1304.82 6713.6 1309.86C6762.95 1314.9 6807.21 1278.85 6812.25 1229.5Z" fill="url(#paint4_linear)"/>
<path d="M5925.27 1253.02C5934.89 1158.8 6019.37 1089.97 6113.59 1099.6C6154.54 1103.78 6190.68 1122.11 6217.68 1149.23C6252.81 1184.51 6272.45 1234.65 6267.01 1287.92C6257.39 1382.14 6172.91 1450.96 6078.69 1441.34C6036.63 1437.04 5999.67 1417.81 5972.45 1389.48C5938.69 1354.34 5919.94 1305.18 5925.27 1253.02ZM6185.64 1279.61C6190.68 1230.26 6154.63 1186.01 6105.28 1180.96C6055.93 1175.92 6011.68 1211.97 6006.64 1261.33C6001.59 1310.68 6037.64 1354.93 6087 1359.97C6136.35 1365.01 6180.6 1328.96 6185.64 1279.61Z" fill="url(#paint5_linear)"/>
<path d="M6563.23 146.511L6566.6 146.909C6588.05 149.363 6603.9 168.074 6602.79 189.633C6599.66 250.461 6630.36 307.58 6682.9 338.693C6693.35 344.877 6700.5 355.383 6702.44 367.363C6704.38 379.346 6700.89 391.569 6692.92 400.728C6670.89 426.045 6656.88 458.408 6653.46 491.846C6650.56 520.177 6655.24 548.991 6666.99 575.177C6693.01 633.157 6750.94 671.072 6814.57 671.766C6826.7 671.9 6838.16 677.419 6845.82 686.83C6853.49 696.246 6856.56 708.617 6854.26 720.484C6853.32 725.3 6852.59 730.225 6852.09 735.119C6846.16 793.182 6871.81 850.434 6919.03 884.53C6970.55 921.733 7039.67 925.604 7095.13 894.394C7105.71 888.441 7118.38 887.491 7129.73 891.811C7141.07 896.127 7149.91 905.26 7153.86 916.737C7173.71 974.457 7223.41 1016.06 7283.58 1025.31C7304.91 1028.59 7320.02 1047.87 7318.1 1069.36L7317.82 1072.69C7317.6 1075.29 7317.37 1077.89 7317.1 1080.5C7269.33 1548.22 6849.95 1889.87 6382.23 1842.1C5914.52 1794.32 5572.86 1374.95 5620.64 907.229C5668.41 439.512 6087.79 97.8645 6555.51 145.636C6558.09 145.9 6560.66 146.203 6563.23 146.511ZM6892.22 1637.62C6877.5 1616.69 6854.31 1602.66 6827.85 1599.95C6778.5 1594.91 6734.24 1630.96 6729.2 1680.32C6727.9 1693.11 6729.43 1705.83 6733.41 1717.79C6789.52 1697.18 6842.78 1670.2 6892.22 1637.62ZM6105.47 314.348C6119.34 340.162 6145.41 358.401 6175.61 361.485C6224.96 366.526 6269.22 330.477 6274.26 281.124C6275.39 270.037 6274.44 259.125 6271.63 248.689C6213.47 264.152 6157.75 286.291 6105.47 314.348ZM6351.72 231.879C6355.84 249.019 6357.31 266.792 6356.02 284.505C6355.91 286.15 6355.8 287.795 6355.63 289.439C6355.4 291.644 6355.06 293.808 6354.76 295.989C6347.14 350.065 6314.79 395.128 6270.38 420.762C6240.21 438.181 6204.53 446.663 6167.3 442.861C6111.2 437.13 6062.53 404.008 6035.53 356.806C5986.57 390.167 5941.6 429.16 5901.43 472.8C5898.59 475.889 5895.71 478.937 5892.91 482.071C5788.78 598.919 5719.09 748.291 5702.01 915.549C5658.82 1338.39 5967.69 1717.54 6390.54 1760.73C6456.76 1767.5 6521.89 1765.58 6584.84 1755.98C6608.47 1752.38 6631.79 1747.73 6654.74 1742.01C6654.87 1741.97 6655.01 1741.95 6655.15 1741.91C6655.13 1741.85 6655.12 1741.79 6655.09 1741.73C6647.97 1719.45 6645.41 1695.77 6647.84 1672C6651.28 1638.27 6664.36 1607.83 6684 1583.05C6719.24 1538.6 6775.67 1512.41 6836.16 1518.59C6883.42 1523.41 6925.27 1547.14 6953.49 1582.9C6955.08 1584.92 6956.64 1586.95 6958.14 1589.04C7103.75 1469.36 7205.91 1296.75 7232.8 1097.07C7174.05 1078.09 7124.81 1037.68 7094.65 983.862C7020.13 1009.4 6936.28 997.863 6871.15 950.839C6806.36 904.054 6768.63 828.234 6769.48 749.027C6692.14 733.89 6625.27 681.972 6592.37 608.667C6574.75 569.402 6567.74 526.13 6572.1 483.535C6575.76 447.653 6587.04 413.567 6605.15 383.081C6558.54 342.655 6528.93 286.252 6522.23 224.868C6464.2 220.807 6407.11 223.354 6351.72 231.879Z" fill="url(#paint6_linear)"/>
<path d="M6054.37 795.405C6066.74 674.27 6175.36 585.78 6296.5 598.153C6349.23 603.538 6395.76 627.172 6430.49 662.126C6475.55 707.47 6500.74 771.873 6493.75 840.282C6481.38 961.417 6372.76 1049.91 6251.62 1037.53C6197.79 1032.04 6150.43 1007.5 6115.48 971.336C6071.79 926.119 6047.49 862.707 6054.37 795.405ZM6412.38 831.971C6420.17 755.698 6364.46 687.31 6288.19 679.52C6211.92 671.73 6143.53 727.442 6135.74 803.715C6127.95 879.989 6183.66 948.377 6259.93 956.167C6336.2 963.957 6404.59 908.245 6412.38 831.971Z" fill="url(#paint7_linear)"/>
<defs>
<filter id="filter0_d" x="422.666" y="517.812" width="851.2" height="1068.8" filterUnits="userSpaceOnUse" color-interpolation-filters="sRGB">
<feFlood flood-opacity="0" result="BackgroundImageFix"/>
<feColorMatrix in="SourceAlpha" type="matrix" values="0 0 0 0 0 0 0 0 0 0 0 0 0 0 0 0 0 0 127 0"/>
<feOffset dy="40"/>
<feGaussianBlur stdDeviation="40"/>
<feColorMatrix type="matrix" values="0 0 0 0 0 0 0 0 0 0 0 0 0 0 0 0 0 0 0.25 0"/>
<feBlend mode="normal" in2="BackgroundImageFix" result="effect1_dropShadow"/>
<feBlend mode="normal" in="SourceGraphic" in2="effect1_dropShadow" result="shape"/>
</filter>
<filter id="filter1_d" x="422.666" y="517.812" width="851.2" height="1068.8" filterUnits="userSpaceOnUse" color-interpolation-filters="sRGB">
<feFlood flood-opacity="0" result="BackgroundImageFix"/>
<feColorMatrix in="SourceAlpha" type="matrix" values="0 0 0 0 0 0 0 0 0 0 0 0 0 0 0 0 0 0 127 0"/>
<feOffset dy="40"/>
<feGaussianBlur stdDeviation="40"/>
<feColorMatrix type="matrix" values="0 0 0 0 0 0 0 0 0 0 0 0 0 0 0 0 0 0 0.25 0"/>
<feBlend mode="normal" in2="BackgroundImageFix" result="effect1_dropShadow"/>
<feBlend mode="normal" in="SourceGraphic" in2="effect1_dropShadow" result="shape"/>
</filter>
<linearGradient id="paint0_linear" x1="3686.03" y1="213.803" x2="3686.03" y2="1773.8" gradientUnits="userSpaceOnUse">
<stop stop-color="#F27121"/>
<stop offset="1" stop-color="#E94057"/>
</linearGradient>
<linearGradient id="paint1_linear" x1="866.025" y1="-6.18802" x2="866.025" y2="1993.81" gradientUnits="userSpaceOnUse">
<stop stop-color="#E57C0B"/>
<stop offset="1" stop-color="#E94057"/>
</linearGradient>
<linearGradient id="paint2_linear" x1="3686.03" y1="213.803" x2="3686.03" y2="1773.8" gradientUnits="userSpaceOnUse">
<stop stop-color="#F27121"/>
<stop offset="1" stop-color="#E94057"/>
</linearGradient>
<linearGradient id="paint3_linear" x1="866.025" y1="-6.18802" x2="866.025" y2="1993.81" gradientUnits="userSpaceOnUse">
<stop stop-color="#E57C0B"/>
<stop offset="1" stop-color="#E94057"/>
</linearGradient>
<linearGradient id="paint4_linear" x1="6893.61" y1="1237.81" x2="6551.87" y2="1202.91" gradientUnits="userSpaceOnUse">
<stop stop-color="#E94057"/>
<stop offset="1" stop-color="#E57C0B"/>
</linearGradient>
<linearGradient id="paint5_linear" x1="6267.01" y1="1287.92" x2="5925.27" y2="1253.02" gradientUnits="userSpaceOnUse">
<stop stop-color="#E94057"/>
<stop offset="1" stop-color="#E57C0B"/>
</linearGradient>
<linearGradient id="paint6_linear" x1="7317.1" y1="1080.5" x2="5620.64" y2="907.229" gradientUnits="userSpaceOnUse">
<stop stop-color="#E94057"/>
<stop offset="1" stop-color="#E57C0B"/>
</linearGradient>
<linearGradient id="paint7_linear" x1="6493.75" y1="840.282" x2="6054.37" y2="795.405" gradientUnits="userSpaceOnUse">
<stop stop-color="#E94057"/>
<stop offset="1" stop-color="#E57C0B"/>
</linearGradient>
</defs>
</svg>
