<svg width="7456" height="1994" viewBox="0 0 7456 1994" fill="none" xmlns="http://www.w3.org/2000/svg">
<path d="M2829.39 1453.8L2828.11 859.883L2533.71 1351.4H2459.47L2165.07 867.563V1453.8H2006.35V557.803H2143.31L2499.15 1151.72L2848.59 557.803H2985.55L2986.83 1453.8H2829.39ZM3520.69 1462.76C3451.57 1462.76 3389.27 1447.83 3333.81 1417.96C3278.35 1388.1 3234.83 1346.71 3203.25 1293.8C3172.53 1240.04 3157.17 1179.46 3157.17 1112.04C3157.17 1044.63 3172.53 984.469 3203.25 931.563C3234.83 878.657 3278.35 837.269 3333.81 807.403C3389.27 777.537 3451.57 762.603 3520.69 762.603C3590.67 762.603 3653.39 777.537 3708.85 807.403C3764.31 837.269 3807.41 878.657 3838.13 931.563C3869.71 984.469 3885.49 1044.63 3885.49 1112.04C3885.49 1179.46 3869.71 1240.04 3838.13 1293.8C3807.41 1346.71 3764.31 1388.1 3708.85 1417.96C3653.39 1447.83 3590.67 1462.76 3520.69 1462.76ZM3520.69 1325.8C3579.57 1325.8 3628.21 1306.18 3666.61 1266.92C3705.01 1227.67 3724.21 1176.04 3724.21 1112.04C3724.21 1048.04 3705.01 996.417 3666.61 957.163C3628.21 917.909 3579.57 898.283 3520.69 898.283C3461.81 898.283 3413.17 917.909 3374.77 957.163C3337.23 996.417 3318.45 1048.04 3318.45 1112.04C3318.45 1176.04 3337.23 1227.67 3374.77 1266.92C3413.17 1306.18 3461.81 1325.8 3520.69 1325.8ZM4707.93 504.043V1453.8H4554.33V1365.48C4527.87 1397.91 4495.03 1422.23 4455.77 1438.44C4417.37 1454.66 4374.71 1462.76 4327.77 1462.76C4262.07 1462.76 4202.75 1448.26 4149.85 1419.24C4097.79 1390.23 4056.83 1349.27 4026.97 1296.36C3997.11 1242.6 3982.17 1181.16 3982.17 1112.04C3982.17 1042.92 3997.11 981.909 4026.97 929.003C4056.83 876.097 4097.79 835.137 4149.85 806.123C4202.75 777.109 4262.07 762.603 4327.77 762.603C4372.99 762.603 4414.39 770.283 4451.93 785.643C4489.47 801.003 4521.47 824.043 4547.93 854.763V504.043H4707.93ZM4346.97 1325.8C4385.37 1325.8 4419.93 1317.27 4450.65 1300.2C4481.37 1282.28 4505.69 1257.11 4523.61 1224.68C4541.53 1192.26 4550.49 1154.71 4550.49 1112.04C4550.49 1069.38 4541.53 1031.83 4523.61 999.403C4505.69 966.977 4481.37 942.229 4450.65 925.163C4419.93 907.243 4385.37 898.283 4346.97 898.283C4308.57 898.283 4274.01 907.243 4243.29 925.163C4212.57 942.229 4188.25 966.977 4170.33 999.403C4152.41 1031.83 4143.45 1069.38 4143.45 1112.04C4143.45 1154.71 4152.41 1192.26 4170.33 1224.68C4188.25 1257.11 4212.57 1282.28 4243.29 1300.2C4274.01 1317.27 4308.57 1325.8 4346.97 1325.8ZM5128.45 1462.76C5072.97 1462.76 5018.79 1455.51 4965.89 1441C4912.97 1426.5 4870.73 1408.15 4839.17 1385.96L4900.61 1264.36C4931.33 1284.84 4968.01 1301.48 5010.69 1314.28C5054.21 1326.23 5096.87 1332.2 5138.69 1332.2C5234.25 1332.2 5282.05 1307.03 5282.05 1256.68C5282.05 1232.79 5269.67 1216.15 5244.93 1206.76C5221.03 1197.38 5182.21 1188.42 5128.45 1179.88C5072.13 1171.35 5026.05 1161.54 4990.21 1150.44C4955.21 1139.35 4924.49 1120.15 4898.05 1092.84C4872.45 1064.68 4859.65 1025.86 4859.65 976.363C4859.65 911.509 4886.53 859.883 4940.29 821.483C4994.89 782.229 5068.29 762.603 5160.45 762.603C5207.37 762.603 5254.31 768.149 5301.25 779.243C5348.17 789.483 5386.57 803.563 5416.45 821.483L5355.01 943.083C5296.97 908.949 5231.69 891.883 5159.17 891.883C5112.23 891.883 5076.39 899.137 5051.65 913.643C5027.75 927.297 5015.81 945.643 5015.81 968.683C5015.81 994.283 5028.61 1012.63 5054.21 1023.72C5080.65 1033.96 5121.19 1043.78 5175.81 1053.16C5230.41 1061.7 5275.21 1071.51 5310.21 1082.6C5345.19 1093.7 5375.05 1112.47 5399.81 1138.92C5425.41 1165.38 5438.21 1202.92 5438.21 1251.56C5438.21 1315.56 5410.47 1366.76 5355.01 1405.16C5299.53 1443.56 5224.01 1462.76 5128.45 1462.76Z" fill="url(#paint0_linear)"/>
<path d="M846.025 5.35898C858.401 -1.78634 873.649 -1.78632 886.025 5.35898L1712.05 482.264C1724.43 489.41 1732.05 502.616 1732.05 516.906V1470.72C1732.05 1485.01 1724.43 1498.21 1712.05 1505.36L886.025 1982.27C873.649 1989.41 858.401 1989.41 846.025 1982.27L20 1505.36C7.624 1498.21 0 1485.01 0 1470.72V516.906C0 502.616 7.624 489.41 20 482.264L846.025 5.35898Z" fill="url(#paint1_linear)"/>
<g filter="url(#filter0_d)">
<path d="M822.666 904.692C948.96 904.692 1042.4 929.438 1102.99 978.932C1163.57 1027.57 1193.87 1094.13 1193.87 1178.61C1193.87 1232.37 1180.64 1281.01 1154.19 1324.53C1127.73 1368.05 1088.05 1402.61 1035.15 1428.21C982.24 1453.81 916.96 1466.61 839.306 1466.61C775.306 1466.61 713.44 1457.65 653.706 1439.73C593.972 1420.96 543.626 1395.36 502.666 1362.93L573.066 1233.65C606.346 1260.96 646.026 1282.72 692.106 1298.93C739.04 1314.29 787.252 1321.97 836.746 1321.97C895.626 1321.97 941.706 1310.03 974.986 1286.13C1009.12 1261.39 1026.19 1227.68 1026.19 1185.01C1026.19 1138.93 1007.84 1104.37 971.146 1081.33C935.306 1057.44 873.44 1045.49 785.546 1045.49H569.226L615.306 557.812H1141.39V697.332H756.106L736.906 904.692H822.666Z" fill="white"/>
</g>
<path d="M2829.39 1453.8L2828.11 859.883L2533.71 1351.4H2459.47L2165.07 867.563V1453.8H2006.35V557.803H2143.31L2499.15 1151.72L2848.59 557.803H2985.55L2986.83 1453.8H2829.39ZM3520.69 1462.76C3451.57 1462.76 3389.27 1447.83 3333.81 1417.96C3278.35 1388.1 3234.83 1346.71 3203.25 1293.8C3172.53 1240.04 3157.17 1179.46 3157.17 1112.04C3157.17 1044.63 3172.53 984.469 3203.25 931.563C3234.83 878.657 3278.35 837.269 3333.81 807.403C3389.27 777.537 3451.57 762.603 3520.69 762.603C3590.67 762.603 3653.39 777.537 3708.85 807.403C3764.31 837.269 3807.41 878.657 3838.13 931.563C3869.71 984.469 3885.49 1044.63 3885.49 1112.04C3885.49 1179.46 3869.71 1240.04 3838.13 1293.8C3807.41 1346.71 3764.31 1388.1 3708.85 1417.96C3653.39 1447.83 3590.67 1462.76 3520.69 1462.76ZM3520.69 1325.8C3579.57 1325.8 3628.21 1306.18 3666.61 1266.92C3705.01 1227.67 3724.21 1176.04 3724.21 1112.04C3724.21 1048.04 3705.01 996.417 3666.61 957.163C3628.21 917.909 3579.57 898.283 3520.69 898.283C3461.81 898.283 3413.17 917.909 3374.77 957.163C3337.23 996.417 3318.45 1048.04 3318.45 1112.04C3318.45 1176.04 3337.23 1227.67 3374.77 1266.92C3413.17 1306.18 3461.81 1325.8 3520.69 1325.8ZM4707.93 504.043V1453.8H4554.33V1365.48C4527.87 1397.91 4495.03 1422.23 4455.77 1438.44C4417.37 1454.66 4374.71 1462.76 4327.77 1462.76C4262.07 1462.76 4202.75 1448.26 4149.85 1419.24C4097.79 1390.23 4056.83 1349.27 4026.97 1296.36C3997.11 1242.6 3982.17 1181.16 3982.17 1112.04C3982.17 1042.92 3997.11 981.909 4026.97 929.003C4056.83 876.097 4097.79 835.137 4149.85 806.123C4202.75 777.109 4262.07 762.603 4327.77 762.603C4372.99 762.603 4414.39 770.283 4451.93 785.643C4489.47 801.003 4521.47 824.043 4547.93 854.763V504.043H4707.93ZM4346.97 1325.8C4385.37 1325.8 4419.93 1317.27 4450.65 1300.2C4481.37 1282.28 4505.69 1257.11 4523.61 1224.68C4541.53 1192.26 4550.49 1154.71 4550.49 1112.04C4550.49 1069.38 4541.53 1031.83 4523.61 999.403C4505.69 966.977 4481.37 942.229 4450.65 925.163C4419.93 907.243 4385.37 898.283 4346.97 898.283C4308.57 898.283 4274.01 907.243 4243.29 925.163C4212.57 942.229 4188.25 966.977 4170.33 999.403C4152.41 1031.83 4143.45 1069.38 4143.45 1112.04C4143.45 1154.71 4152.41 1192.26 4170.33 1224.68C4188.25 1257.11 4212.57 1282.28 4243.29 1300.2C4274.01 1317.27 4308.57 1325.8 4346.97 1325.8ZM5128.45 1462.76C5072.97 1462.76 5018.79 1455.51 4965.89 1441C4912.97 1426.5 4870.73 1408.15 4839.17 1385.96L4900.61 1264.36C4931.33 1284.84 4968.01 1301.48 5010.69 1314.28C5054.21 1326.23 5096.87 1332.2 5138.69 1332.2C5234.25 1332.2 5282.05 1307.03 5282.05 1256.68C5282.05 1232.79 5269.67 1216.15 5244.93 1206.76C5221.03 1197.38 5182.21 1188.42 5128.45 1179.88C5072.13 1171.35 5026.05 1161.54 4990.21 1150.44C4955.21 1139.35 4924.49 1120.15 4898.05 1092.84C4872.45 1064.68 4859.65 1025.86 4859.65 976.363C4859.65 911.509 4886.53 859.883 4940.29 821.483C4994.89 782.229 5068.29 762.603 5160.45 762.603C5207.37 762.603 5254.31 768.149 5301.25 779.243C5348.17 789.483 5386.57 803.563 5416.45 821.483L5355.01 943.083C5296.97 908.949 5231.69 891.883 5159.17 891.883C5112.23 891.883 5076.39 899.137 5051.65 913.643C5027.75 927.297 5015.81 945.643 5015.81 968.683C5015.81 994.283 5028.61 1012.63 5054.21 1023.72C5080.65 1033.96 5121.19 1043.78 5175.81 1053.16C5230.41 1061.7 5275.21 1071.51 5310.21 1082.6C5345.19 1093.7 5375.05 1112.47 5399.81 1138.92C5425.41 1165.38 5438.21 1202.92 5438.21 1251.56C5438.21 1315.56 5410.47 1366.76 5355.01 1405.16C5299.53 1443.56 5224.01 1462.76 5128.45 1462.76Z" fill="url(#paint2_linear)"/>
<path d="M846.025 5.35898C858.401 -1.78634 873.649 -1.78632 886.025 5.35898L1712.05 482.264C1724.43 489.41 1732.05 502.616 1732.05 516.906V1470.72C1732.05 1485.01 1724.43 1498.21 1712.05 1505.36L886.025 1982.27C873.649 1989.41 858.401 1989.41 846.025 1982.27L20 1505.36C7.624 1498.21 0 1485.01 0 1470.72V516.906C0 502.616 7.624 489.41 20 482.264L846.025 5.35898Z" fill="url(#paint3_linear)"/>
<g filter="url(#filter1_d)">
<path d="M822.666 904.692C948.96 904.692 1042.4 929.438 1102.99 978.932C1163.57 1027.57 1193.87 1094.13 1193.87 1178.61C1193.87 1232.37 1180.64 1281.01 1154.19 1324.53C1127.73 1368.05 1088.05 1402.61 1035.15 1428.21C982.24 1453.81 916.96 1466.61 839.306 1466.61C775.306 1466.61 713.44 1457.65 653.706 1439.73C593.972 1420.96 543.626 1395.36 502.666 1362.93L573.066 1233.65C606.346 1260.96 646.026 1282.72 692.106 1298.93C739.04 1314.29 787.252 1321.97 836.746 1321.97C895.626 1321.97 941.706 1310.03 974.986 1286.13C1009.12 1261.39 1026.19 1227.68 1026.19 1185.01C1026.19 1138.93 1007.84 1104.37 971.146 1081.33C935.306 1057.44 873.44 1045.49 785.546 1045.49H569.226L615.306 557.812H1141.39V697.332H756.106L736.906 904.692H822.666Z" fill="white"/>
</g>
<path fill-rule="evenodd" clip-rule="evenodd" d="M6524.26 196.168H6334.76V339.168L6217.26 406.668L6049.76 321.168C5885.59 454.335 5577.96 794.868 5660.76 1091.67C5743.56 1388.47 5835.59 1524.33 5871.26 1555.17C5997.26 1664.5 6312.06 1870.37 6563.26 1819.17C6814.46 1767.97 6762.92 1750.5 6705.76 1748.17C6696.26 1702.83 6691.56 1606.47 6748.76 1583.67C6820.26 1555.17 6844.76 1555.17 6891.26 1583.67C6928.46 1606.47 6959.09 1633.83 6969.76 1644.67C7037.42 1586.33 7174.96 1463.27 7183.76 1437.67C7192.56 1412.07 7258.76 1184.33 7290.76 1073.67L7132.26 962.668C7071.76 973.001 6940.86 977.068 6901.26 910.668C6861.66 844.268 6824.09 754.668 6810.26 718.168C6730.76 696.335 6581.56 623.368 6620.76 506.168C6659.96 388.968 6645.76 346.001 6633.76 339.168L6524.26 196.168ZM6133.76 718.168C6269.26 597.668 6534.26 692.668 6419.76 910.668C6305.26 1128.67 5998.26 838.668 6133.76 718.168ZM5985.76 1232.67C6048.76 1113.17 6266.76 1129.67 6219.26 1315.67C6171.76 1501.67 5922.76 1352.17 5985.76 1232.67ZM6847.76 1280.67C6911.36 1086.67 6728.26 1112.83 6628.76 1150.17L6597.76 1219.67C6654.59 1320.83 6784.16 1474.67 6847.76 1280.67Z" fill="url(#paint4_linear)" stroke="black"/>
<path d="M6574.43 153.241L6577.81 153.64C6599.26 156.094 6615.1 174.804 6613.99 196.363C6610.87 257.192 6641.57 314.311 6694.11 345.423C6704.55 351.608 6711.71 362.114 6713.65 374.093C6715.58 386.077 6712.09 398.299 6704.13 407.458C6682.1 432.775 6668.08 465.139 6664.66 498.576C6661.77 526.908 6666.45 555.721 6678.2 581.907C6704.22 639.887 6762.14 677.802 6825.77 678.497C6837.91 678.631 6849.36 684.149 6857.02 693.561C6864.69 702.977 6867.76 715.347 6865.46 727.214C6864.52 732.031 6863.79 736.955 6863.29 741.849C6857.36 799.913 6883.01 857.165 6930.23 891.261C6981.76 928.464 7050.88 932.334 7106.33 901.124C7116.91 895.171 7129.59 894.221 7140.93 898.541C7152.28 902.857 7161.12 911.99 7165.06 923.467C7184.91 981.187 7234.62 1022.79 7294.79 1032.04C7316.11 1035.32 7331.22 1054.6 7329.31 1076.09L7329.02 1079.42C7328.8 1082.02 7328.57 1084.63 7328.31 1087.23C7280.54 1554.95 6861.16 1896.6 6393.44 1848.83C5925.72 1801.05 5584.07 1381.68 5631.84 913.96C5679.61 446.242 6098.99 104.595 6566.71 152.366C6569.29 152.63 6571.86 152.934 6574.43 153.241ZM6903.43 1644.35C6888.7 1623.42 6865.51 1609.39 6839.05 1606.68C6789.7 1601.64 6745.45 1637.69 6740.41 1687.05C6739.1 1699.84 6740.63 1712.56 6744.61 1724.52C6800.72 1703.91 6853.99 1676.93 6903.43 1644.35ZM6116.67 321.079C6130.55 346.893 6156.62 365.131 6186.82 368.216C6236.17 373.257 6280.42 337.207 6285.46 287.854C6286.59 276.768 6285.65 265.856 6282.84 255.419C6224.67 270.883 6168.95 293.022 6116.67 321.079ZM6362.93 238.61C6367.05 255.749 6368.52 273.522 6367.23 291.236C6367.11 292.88 6367 294.525 6366.83 296.169C6366.61 298.374 6366.27 300.539 6365.96 302.719C6358.35 356.796 6325.99 401.859 6281.59 427.492C6251.42 444.911 6215.73 453.394 6178.51 449.591C6122.4 443.861 6073.73 410.739 6046.74 363.536C5997.77 396.897 5952.81 435.891 5912.64 479.53C5909.79 482.619 5906.91 485.667 5904.12 488.802C5799.98 605.65 5730.29 755.021 5713.21 922.279C5670.02 1345.12 5978.9 1724.27 6401.75 1767.46C6467.96 1774.23 6533.1 1772.31 6596.05 1762.71C6619.67 1759.11 6642.99 1754.46 6665.94 1748.74C6666.08 1748.7 6666.21 1748.68 6666.35 1748.64C6666.34 1748.58 6666.32 1748.52 6666.3 1748.46C6659.17 1726.18 6656.61 1702.5 6659.04 1678.74C6662.49 1645 6675.56 1614.56 6695.21 1589.78C6730.44 1545.33 6786.88 1519.14 6847.36 1525.32C6894.63 1530.14 6936.47 1553.87 6964.69 1589.63C6966.28 1591.65 6967.85 1593.68 6969.35 1595.77C7114.95 1476.09 7217.11 1303.48 7244 1103.8C7185.25 1084.82 7136.01 1044.41 7105.86 990.592C7031.33 1016.13 6947.48 1004.59 6882.36 957.57C6817.56 910.785 6779.84 834.965 6780.68 755.758C6703.35 740.62 6636.47 688.702 6603.58 615.397C6585.96 576.132 6578.94 532.861 6583.3 490.266C6586.97 454.383 6598.24 420.297 6616.35 389.811C6569.74 349.385 6540.13 292.982 6533.43 231.598C6475.4 227.538 6418.31 230.084 6362.93 238.61Z" fill="#452A0B"/>
<path d="M5936.48 1259.75C5946.1 1165.53 6030.58 1096.71 6124.8 1106.33C6165.75 1110.51 6201.89 1128.85 6228.89 1155.96C6264.01 1191.24 6283.66 1241.39 6278.22 1294.65C6268.59 1388.87 6184.11 1457.69 6089.89 1448.07C6047.84 1443.78 6010.88 1424.54 5983.66 1396.21C5949.9 1361.07 5931.15 1311.92 5936.48 1259.75ZM6196.85 1286.34C6201.89 1236.99 6165.84 1192.74 6116.49 1187.7C6067.14 1182.66 6022.88 1218.71 6017.84 1268.06C6012.8 1317.41 6048.85 1361.66 6098.21 1366.7C6147.56 1371.74 6191.81 1335.7 6196.85 1286.34Z" fill="#452A0B"/>
<path d="M6563.08 1209.64C6572.7 1115.42 6657.18 1046.6 6751.4 1056.22C6792.35 1060.4 6828.49 1078.74 6855.49 1105.85C6890.61 1141.13 6910.26 1191.27 6904.82 1244.54C6895.2 1338.76 6810.72 1407.58 6716.5 1397.96C6674.44 1393.66 6637.48 1374.43 6610.26 1346.1C6576.5 1310.95 6557.75 1261.8 6563.08 1209.64ZM6823.45 1236.23C6828.49 1186.88 6792.44 1142.63 6743.09 1137.59C6693.74 1132.54 6649.49 1168.59 6644.45 1217.95C6639.4 1267.3 6675.45 1311.55 6724.81 1316.59C6774.16 1321.63 6818.41 1285.58 6823.45 1236.23Z" fill="#452A0B"/>
<path d="M6065.58 802.137C6077.95 681.002 6186.57 592.512 6307.71 604.885C6360.44 610.271 6406.97 633.904 6441.7 668.858C6486.76 714.202 6511.95 778.605 6504.96 847.014C6492.59 968.149 6383.97 1056.64 6262.83 1044.27C6209 1038.77 6161.64 1014.23 6126.69 978.068C6083 932.851 6058.7 869.44 6065.58 802.137ZM6423.59 838.704C6431.38 762.43 6375.67 694.042 6299.4 686.252C6223.13 678.462 6154.73 734.174 6146.94 810.448C6139.15 886.721 6194.87 955.11 6271.14 962.899C6347.41 970.69 6415.8 914.977 6423.59 838.704Z" fill="#452A0B"/>
<defs>
<filter id="filter0_d" x="422.666" y="517.812" width="851.2" height="1068.8" filterUnits="userSpaceOnUse" color-interpolation-filters="sRGB">
<feFlood flood-opacity="0" result="BackgroundImageFix"/>
<feColorMatrix in="SourceAlpha" type="matrix" values="0 0 0 0 0 0 0 0 0 0 0 0 0 0 0 0 0 0 127 0"/>
<feOffset dy="40"/>
<feGaussianBlur stdDeviation="40"/>
<feColorMatrix type="matrix" values="0 0 0 0 0 0 0 0 0 0 0 0 0 0 0 0 0 0 0.25 0"/>
<feBlend mode="normal" in2="BackgroundImageFix" result="effect1_dropShadow"/>
<feBlend mode="normal" in="SourceGraphic" in2="effect1_dropShadow" result="shape"/>
</filter>
<filter id="filter1_d" x="422.666" y="517.812" width="851.2" height="1068.8" filterUnits="userSpaceOnUse" color-interpolation-filters="sRGB">
<feFlood flood-opacity="0" result="BackgroundImageFix"/>
<feColorMatrix in="SourceAlpha" type="matrix" values="0 0 0 0 0 0 0 0 0 0 0 0 0 0 0 0 0 0 127 0"/>
<feOffset dy="40"/>
<feGaussianBlur stdDeviation="40"/>
<feColorMatrix type="matrix" values="0 0 0 0 0 0 0 0 0 0 0 0 0 0 0 0 0 0 0.25 0"/>
<feBlend mode="normal" in2="BackgroundImageFix" result="effect1_dropShadow"/>
<feBlend mode="normal" in="SourceGraphic" in2="effect1_dropShadow" result="shape"/>
</filter>
<linearGradient id="paint0_linear" x1="3686.03" y1="213.803" x2="3686.03" y2="1773.8" gradientUnits="userSpaceOnUse">
<stop stop-color="#F27121"/>
<stop offset="1" stop-color="#E94057"/>
</linearGradient>
<linearGradient id="paint1_linear" x1="866.025" y1="-6.18802" x2="866.025" y2="1993.81" gradientUnits="userSpaceOnUse">
<stop stop-color="#E57C0B"/>
<stop offset="1" stop-color="#E94057"/>
</linearGradient>
<linearGradient id="paint2_linear" x1="3686.03" y1="213.803" x2="3686.03" y2="1773.8" gradientUnits="userSpaceOnUse">
<stop stop-color="#F27121"/>
<stop offset="1" stop-color="#E94057"/>
</linearGradient>
<linearGradient id="paint3_linear" x1="866.025" y1="-6.18802" x2="866.025" y2="1993.81" gradientUnits="userSpaceOnUse">
<stop stop-color="#E57C0B"/>
<stop offset="1" stop-color="#E94057"/>
</linearGradient>
<linearGradient id="paint4_linear" x1="5704.26" y1="1410.67" x2="6898.76" y2="279.168" gradientUnits="userSpaceOnUse">
<stop stop-color="#E94040"/>
<stop offset="1" stop-color="#F27121"/>
</linearGradient>
</defs>
</svg>
