<svg width="5207" height="4421" viewBox="0 0 5207 4421" fill="none" xmlns="http://www.w3.org/2000/svg">
<path d="M752.122 58.2749C705.838 102.245 694.267 136.958 694.267 231.842V347.553H578.556C414.246 347.553 347.133 414.665 347.133 578.975V694.686H231.422C136.539 694.686 101.826 706.257 57.8556 752.542L0 808.083V2557.64V4307.19L57.8556 4362.73L113.397 4420.58H2256.37H4399.34L4454.88 4362.73C4501.16 4318.76 4512.73 4284.04 4512.73 4189.16V4073.45H4628.44C4792.75 4073.45 4859.87 4006.34 4859.87 3842.03V3726.32H4975.58C5070.46 3726.32 5105.17 3714.75 5149.14 3668.46L5207 3612.92V1863.37V113.816L5149.14 58.2749L5093.6 0.419323H2950.63H807.664L752.122 58.2749ZM5033.43 1863.37V3552.75L4947.81 3559.69L4859.87 3566.64V2013.79V460.95L4802.01 405.408L4746.47 347.553H2800.21H856.262V271.183C856.262 227.213 863.205 185.557 872.462 178.614C879.404 169.358 1821.29 164.729 2959.89 167.043L5033.43 173.986V1863.37ZM4686.3 2210.5V3899.88L4600.67 3906.83L4512.73 3913.77V2360.93V808.083L4454.88 752.542L4399.34 694.686H2453.08H509.129V618.317C509.129 574.346 516.072 532.69 525.328 525.748C532.271 516.491 1474.16 511.862 2612.76 514.177L4686.3 521.119V2210.5ZM4339.17 886.766C4346.11 900.652 4348.42 1340.35 4346.11 1861.05L4339.17 2807.57L4107.74 2539.12C3927.24 2330.84 3862.44 2270.67 3818.47 2270.67C3772.18 2270.67 3702.76 2337.78 3482.9 2592.35L3207.51 2911.71L3145.03 2860.8C3112.63 2833.03 2774.75 2534.49 2397.53 2196.62C2015.69 1858.74 1684.75 1583.35 1656.98 1578.72C1617.64 1574.09 1437.13 1719.89 900.232 2196.62C513.757 2541.44 189.766 2823.77 180.509 2823.77C157.367 2823.77 155.053 893.709 178.195 872.881C185.138 863.624 1122.4 856.682 2261 856.682C3894.84 856.682 4332.22 863.624 4339.17 886.766ZM2441.5 2465.07C2811.78 2793.69 3133.46 3076.02 3161.23 3094.53C3189 3110.73 3223.71 3119.99 3242.23 3110.73C3260.74 3103.79 3394.96 2958 3540.76 2789.06C3686.56 2617.8 3813.84 2481.27 3820.78 2483.58C3830.04 2485.89 3950.38 2622.43 4093.86 2784.43L4350.74 3080.65L4346.11 3663.83L4339.17 4247.02H2256.37H173.567L166.624 3666.15L161.996 3082.96L904.861 2421.1L1650.04 1756.91L1710.21 1812.46C1742.61 1844.85 2073.54 2138.76 2441.5 2465.07Z" fill="url(#paint0_linear)"/>
<path d="M2962.2 1430.61C2867.32 1481.52 2777.07 1625.01 2777.07 1722.2C2777.07 1844.86 2862.69 1983.71 2971.46 2034.62C3024.69 2062.39 3091.8 2083.22 3119.57 2083.22C3267.68 2083.22 3434.31 1939.74 3462.08 1791.63C3482.9 1680.55 3418.11 1518.55 3327.85 1456.07C3228.34 1384.33 3066.34 1375.07 2962.2 1430.61ZM3230.65 1604.18C3357.94 1712.95 3290.82 1898.08 3124.2 1898.08C3029.32 1898.08 2973.78 1854.11 2950.63 1754.6C2936.75 1703.69 2948.32 1678.23 3003.86 1620.38C3089.49 1537.07 3147.34 1532.44 3230.65 1604.18Z" fill="url(#paint1_linear)"/>
<defs>
<linearGradient id="paint0_linear" x1="2603.5" y1="4420.58" x2="2603.5" y2="0.419434" gradientUnits="userSpaceOnUse">
<stop stop-color="#E94057"/>
<stop offset="1" stop-color="#E57C0B"/>
</linearGradient>
<linearGradient id="paint1_linear" x1="3121.53" y1="2083.22" x2="3121.53" y2="1394.72" gradientUnits="userSpaceOnUse">
<stop stop-color="#E94057"/>
<stop offset="1" stop-color="#E57C0B"/>
</linearGradient>
</defs>
</svg>
