<svg width="5207" height="5207" viewBox="0 0 5207 5207" fill="none" xmlns="http://www.w3.org/2000/svg">
<path d="M752.122 451.275C705.838 495.245 694.267 529.959 694.267 624.842V740.553H578.556C414.246 740.553 347.133 807.665 347.133 971.975V1087.69H231.422C136.539 1087.69 101.826 1099.26 57.8556 1145.54L0 1201.08V2950.64V4700.19L57.8556 4755.73L113.397 4813.58H2256.37H4399.34L4454.88 4755.73C4501.16 4711.76 4512.73 4677.04 4512.73 4582.16V4466.45H4628.44C4792.75 4466.45 4859.87 4399.34 4859.87 4235.03V4119.32H4975.58C5070.46 4119.32 5105.17 4107.75 5149.14 4061.46L5207 4005.92V2256.37V506.816L5149.14 451.275L5093.6 393.419H2950.63H807.664L752.122 451.275ZM5033.43 2256.37V3945.75L4947.81 3952.69L4859.87 3959.64V2406.79V853.949L4802.01 798.408L4746.47 740.553H2800.21H856.262V664.183C856.262 620.213 863.205 578.557 872.462 571.614C879.404 562.357 1821.29 557.729 2959.89 560.043L5033.43 566.986V2256.37ZM4686.3 2603.5V4292.88L4600.67 4299.83L4512.73 4306.77V2753.93V1201.08L4454.88 1145.54L4399.34 1088.69L2453.08 1087.69H509.129V1011.32C509.129 967.346 516.072 925.69 525.328 918.748C532.271 909.491 1474.16 904.863 2612.76 907.177L4686.3 914.119V2603.5ZM4339.17 1279.77C4346.11 1293.65 4348.42 1733.35 4346.11 2254.05L4339.17 3200.57L4107.74 2932.12C3927.24 2723.84 3862.44 2663.67 3818.47 2663.67C3772.18 2663.67 3702.76 2730.78 3482.9 2985.35L3207.51 3304.71L3145.03 3253.8C3112.63 3226.03 2774.75 2927.49 2397.53 2589.62C2015.69 2251.74 1684.75 1976.35 1656.98 1971.72C1617.64 1967.09 1437.13 2112.89 900.232 2589.62C513.757 2934.44 189.766 3216.77 180.509 3216.77C157.367 3216.77 155.053 1286.71 178.195 1265.88C185.138 1256.62 1122.4 1249.68 2261 1249.68C3894.84 1249.68 4332.22 1256.62 4339.17 1279.77ZM1775.5 3216.77C2145.78 3545.39 3214.45 3485.22 3242.23 3503.73C3227 3493 3255 3477.5 3242.23 3503.73C3260.74 3496.79 3394.96 3351 3540.76 3182.06C3686.56 3010.8 3813.84 2874.27 3820.78 2876.58C3830.04 2878.89 3768.52 3180.5 3912 3342.5L4350.74 3473.65L4346.11 4056.83L4339.17 4640.02H2256.37H173.567L166.624 4059.15L161.996 3475.96L904.861 2814.1L1650.04 2149.91L1710.21 2205.46C1742.61 2237.85 1407.54 2890.47 1775.5 3216.77Z" fill="url(#paint0_linear)"/>
<path d="M2962.2 1823.61C2867.32 1874.52 2777.07 2018.01 2777.07 2115.2C2777.07 2237.86 2862.69 2376.71 2971.46 2427.62C3024.69 2455.39 3091.8 2476.22 3119.57 2476.22C3267.68 2476.22 3434.31 2332.74 3462.08 2184.63C3482.9 2073.55 3418.11 1911.55 3327.85 1849.07C3228.34 1777.33 3066.34 1768.07 2962.2 1823.61ZM3246.5 1978.5C3373.78 2087.27 3286.19 2307 3119.57 2307C3024.69 2307 2965.64 2250.01 2942.5 2150.5C2928.61 2099.59 2933.46 2055.03 2989 1997.18C3074.63 1913.87 3163.19 1906.76 3246.5 1978.5Z" fill="url(#paint1_linear)"/>
<defs>
<linearGradient id="paint0_linear" x1="2603.5" y1="4813.58" x2="2603.5" y2="393.419" gradientUnits="userSpaceOnUse">
<stop stop-color="#E94057"/>
<stop offset="1" stop-color="#E57C0B"/>
</linearGradient>
<linearGradient id="paint1_linear" x1="3121.53" y1="2476.22" x2="3121.53" y2="1787.72" gradientUnits="userSpaceOnUse">
<stop stop-color="#E94057"/>
<stop offset="1" stop-color="#E57C0B"/>
</linearGradient>
</defs>
</svg>
