<svg width="5224" height="5224" viewBox="0 0 5224 5224" fill="none" xmlns="http://www.w3.org/2000/svg">
<path d="M1163.16 263.227C1022.35 306.08 897.875 412.192 824.413 550.955C787.681 618.296 785.641 710.124 785.641 2611.99C785.641 4513.85 787.681 4605.68 824.413 4673.02C877.469 4773.01 975.419 4873 1071.33 4924.01C1150.91 4968.91 1171.32 4968.91 2228.36 4975.03C3287.45 4981.15 3305.81 4979.11 3346.63 4938.3C3397.64 4887.28 3399.68 4828.1 3346.63 4775.05C3307.85 4736.28 3279.28 4734.24 2271.22 4734.24C1273.35 4734.24 1232.54 4732.2 1167.24 4693.42C1130.51 4670.98 1083.57 4624.04 1061.13 4587.31C1020.31 4522.01 1020.31 4479.16 1020.31 2611.99C1020.31 744.815 1020.31 701.961 1061.13 636.661C1083.57 599.93 1130.51 552.996 1167.24 530.549C1232.54 491.777 1273.35 489.736 2307.95 489.736H3383.36L3391.52 708.083C3399.68 948.877 3424.17 1018.26 3538.44 1138.66C3662.92 1273.34 3732.3 1293.74 4064.93 1301.91C4346.53 1310.07 4364.9 1308.03 4405.71 1267.21C4432.24 1240.69 4448.56 1197.83 4448.56 1157.02C4448.56 1048.87 4389.38 836.642 4332.25 728.489C4260.83 599.93 4093.49 432.599 3964.93 361.177C3756.79 248.942 3709.86 244.861 2407.94 246.902C1750.86 246.902 1191.73 255.064 1163.16 263.227ZM3789.44 550.955C3911.88 606.052 4071.05 761.14 4132.27 883.577C4215.93 1052.95 4211.85 1061.11 4015.95 1061.11C3728.22 1061.11 3632.31 965.202 3632.31 677.474C3632.31 485.655 3638.43 481.574 3789.44 550.955Z" fill="url(#paint0_linear)"/>
<path d="M4244.5 1673.31C4205.73 1712.08 4203.69 1740.65 4203.69 2285.5C4203.69 2830.35 4205.73 2858.92 4244.5 2897.69C4266.95 2920.13 4303.68 2938.5 4326.13 2938.5C4348.57 2938.5 4385.3 2920.13 4407.75 2897.69C4446.52 2858.92 4448.56 2830.35 4448.56 2285.5C4448.56 1740.65 4446.52 1712.08 4407.75 1673.31C4385.3 1650.87 4348.57 1632.5 4326.13 1632.5C4303.68 1632.5 4266.95 1650.87 4244.5 1673.31Z" fill="url(#paint1_linear)"/>
<path d="M4122.06 3377.23C3618.03 3518.03 3375.2 4056.75 3601.7 4522.02C3687.41 4697.51 3809.85 4815.87 3989.42 4901.57C4503.66 5140.33 5105.64 4785.26 5138.29 4222.04C5150.54 3997.58 5095.44 3795.55 5019.94 3795.55C5009.74 3795.55 4866.89 3946.56 4701.6 4132.26C4420 4450.59 4342.45 4513.85 4285.31 4479.16C4246.54 4454.68 3958.81 4085.32 3940.45 4036.35C3915.96 3971.05 3946.57 3901.67 4007.79 3885.34C4077.17 3869.02 4120.02 3897.58 4224.1 4038.39C4275.11 4105.73 4326.13 4160.83 4336.33 4160.83C4373.06 4158.78 4836.28 3615.98 4836.28 3575.17C4836.28 3430.28 4383.26 3305.8 4122.06 3377.23Z" fill="url(#paint2_linear)"/>
<defs>
<linearGradient id="paint0_linear" x1="2617.1" y1="4977.61" x2="2617.1" y2="246.573" gradientUnits="userSpaceOnUse">
<stop stop-color="#E94057"/>
<stop offset="1" stop-color="#F27121"/>
</linearGradient>
<linearGradient id="paint1_linear" x1="4326.12" y1="2938.5" x2="4326.12" y2="1632.5" gradientUnits="userSpaceOnUse">
<stop stop-color="#E94057"/>
<stop offset="1" stop-color="#F27121"/>
</linearGradient>
<linearGradient id="paint2_linear" x1="4328.27" y1="4977.05" x2="4328.27" y2="3356.48" gradientUnits="userSpaceOnUse">
<stop stop-color="#2EB62C"/>
<stop offset="1" stop-color="#57C84D"/>
</linearGradient>
</defs>
</svg>
