<svg width="4826" height="4443" viewBox="0 0 4826 4443" fill="none" xmlns="http://www.w3.org/2000/svg">
<path d="M1737.4 13.113C1298.57 94.8553 958.696 432.58 879.104 862.802C866.198 931.638 855.442 1019.83 855.442 1056.4C855.442 1118.78 846.838 1127.39 741.433 1159.66C584.402 1209.13 345.629 1381.22 238.074 1523.19C-269.589 2179.28 78.8913 3123.62 887.709 3293.56C995.265 3315.07 1178.11 3325.82 1517.98 3325.82H1997.68L1991.23 3235.48L1984.78 3142.98L1425.49 3132.22L866.198 3121.47L719.922 3052.63C438.127 2919.26 231.62 2637.47 188.598 2329.86C124.065 1875.98 418.767 1435 866.198 1314.54C943.638 1293.02 1014.62 1265.06 1025.38 1252.15C1036.14 1239.25 1049.04 1135.99 1053.34 1024.14C1059.8 845.593 1068.4 800.42 1128.63 679.958C1216.83 501.415 1365.26 352.989 1543.8 264.793C1672.86 200.26 1698.68 195.958 1909.49 195.958C2118.14 195.958 2146.11 200.26 2275.18 262.642C2442.96 342.233 2587.09 479.904 2677.43 649.842L2746.27 776.758H2989.34C3217.36 776.758 3241.02 781.06 3372.24 843.442C3544.33 927.335 3628.22 1000.47 3735.78 1153.2C3808.92 1262.91 3826.13 1273.66 3950.89 1308.08C4215.48 1379.07 4432.74 1557.61 4551.05 1798.54C4779.07 2267.48 4587.62 2813.86 4114.38 3048.33L3963.8 3121.47L3260.38 3127.92L2554.82 3134.38V3231.18V3325.82H3174.34C3989.61 3325.82 4146.64 3291.41 4434.89 3056.94C4847.9 2719.21 4949.01 2073.88 4662.91 1628.6C4512.33 1396.28 4307.98 1234.94 4056.3 1151.05C3940.14 1112.33 3910.02 1090.82 3845.49 1000.47C3763.74 886.464 3606.71 753.095 3469.04 684.26C3335.67 617.575 3208.76 589.611 3023.76 589.611C2855.98 589.611 2855.98 589.611 2819.41 522.927C2769.93 426.127 2559.12 211.015 2455.87 150.784C2253.66 32.4731 1948.21 -27.7581 1737.4 13.113Z" fill="url(#paint0_linear)"/>
<path d="M1926.69 1749.06C1649.2 2024.4 1601.88 2093.23 1651.35 2153.46C1702.98 2215.85 1763.21 2185.73 1954.66 1998.58L2146.11 1811.44V3084.9C2146.11 4330.39 2146.11 4358.35 2189.13 4401.38C2240.76 4453 2262.27 4455.15 2305.29 4409.98C2335.41 4379.86 2339.71 4231.44 2339.71 3082.74V1787.78L2539.76 1987.83C2649.47 2095.38 2752.72 2185.73 2772.08 2185.73C2817.25 2185.73 2855.97 2142.71 2855.97 2088.93C2855.97 2033 2300.99 1475.86 2245.06 1475.86C2221.4 1475.86 2085.88 1592.02 1926.69 1749.06Z" fill="url(#paint1_linear)"/>
<defs>
<linearGradient id="paint0_linear" x1="2413.11" y1="3325.82" x2="2413.11" y2="0.34082" gradientUnits="userSpaceOnUse">
<stop stop-color="#E94057"/>
<stop offset="1" stop-color="#F27121"/>
</linearGradient>
<linearGradient id="paint1_linear" x1="2245.07" y1="4442.09" x2="2245.07" y2="1475.86" gradientUnits="userSpaceOnUse">
<stop stop-color="#E94057"/>
<stop offset="1" stop-color="#F27121"/>
</linearGradient>
</defs>
</svg>
